<svg width="25" height="25" viewBox="0 0 25 25" fill="none" xmlns="http://www.w3.org/2000/svg">
<path d="M12.5 2.5C6.9775 2.5 2.5 6.9775 2.5 12.5C2.5 18.0225 6.9775 22.5 12.5 22.5C18.0225 22.5 22.5 18.0225 22.5 12.5C22.5 6.9775 18.0225 2.5 12.5 2.5ZM16.6667 13.3333H13.3333V16.6667C13.3333 17.1275 12.96 17.5 12.5 17.5C12.04 17.5 11.6667 17.1275 11.6667 16.6667V13.3333H8.33333C7.87333 13.3333 7.5 12.9608 7.5 12.5C7.5 12.0392 7.87333 11.6667 8.33333 11.6667H11.6667V8.33333C11.6667 7.8725 12.04 7.5 12.5 7.5C12.96 7.5 13.3333 7.8725 13.3333 8.33333V11.6667H16.6667C17.1267 11.6667 17.5 12.0392 17.5 12.5C17.5 12.9608 17.1267 13.3333 16.6667 13.3333Z" fill="#8C6925"/>
</svg>
