<svg width="18" height="18" viewBox="0 0 18 18" fill="none" xmlns="http://www.w3.org/2000/svg">
<g clip-path="url(#clip0_554_717)">
<path d="M7.2007 0.719971C6.60867 0.719971 6.1207 1.20794 6.1207 1.79997V2.51997H1.77117C1.1918 2.51997 0.720703 2.98685 0.720703 3.5606V8.99997C0.720703 9.19825 0.868359 9.35997 1.05117 9.35997H12.0171C12.702 8.90575 13.5204 8.63997 14.4007 8.63997C15.5074 8.63997 16.5157 9.06185 17.2807 9.7481V3.5606C17.2807 2.98685 16.8096 2.51997 16.2302 2.51997H11.8807V1.79997C11.8807 1.20794 11.3927 0.719971 10.8007 0.719971H7.2007ZM7.2007 1.43997H10.8007C11.0032 1.43997 11.1607 1.59747 11.1607 1.79997V2.51997H6.8407V1.79997C6.8407 1.59747 6.9982 1.43997 7.2007 1.43997ZM9.0007 7.19997C9.39867 7.19997 9.7207 7.522 9.7207 7.91997C9.7207 8.31794 9.39867 8.63997 9.0007 8.63997C8.60273 8.63997 8.2807 8.31794 8.2807 7.91997C8.2807 7.522 8.60273 7.19997 9.0007 7.19997ZM14.4007 9.35997C12.4165 9.35997 10.8007 10.9758 10.8007 12.96C10.8007 13.8234 11.1073 14.6151 11.6163 15.2367L9.46617 17.3854L9.97523 17.8945L12.124 15.7443C12.7455 16.2534 13.5373 16.56 14.4007 16.56C16.3849 16.56 18.0007 14.9442 18.0007 12.96C18.0007 10.9758 16.3849 9.35997 14.4007 9.35997ZM0.720703 10.0195V14.4393C0.720703 15.0131 1.1918 15.48 1.77117 15.48H10.3535L10.6812 15.1537C10.2916 14.4914 10.0807 13.732 10.0807 12.96C10.0807 11.8533 10.5026 10.845 11.1888 10.08H1.05117C0.935859 10.08 0.824766 10.0561 0.720703 10.0195ZM14.4007 10.08C15.9954 10.08 17.2807 11.3653 17.2807 12.96C17.2807 14.5547 15.9954 15.84 14.4007 15.84C12.806 15.84 11.5207 14.5547 11.5207 12.96C11.5207 11.3653 12.806 10.08 14.4007 10.08Z" fill="#8C6925"/>
</g>
<defs>
<clipPath id="clip0_554_717">
<rect width="18" height="18" fill="white"/>
</clipPath>
</defs>
</svg>
