<svg width="49" height="49" viewBox="0 0 49 49" fill="none" xmlns="http://www.w3.org/2000/svg">
<g clip-path="url(#clip0_288_863)">
<path d="M17.9036 0.353271C14.4509 0.353271 11.6608 3.15075 11.6608 6.59606C11.6608 8.41442 12.4265 10.0487 13.6632 11.1898C16.3503 10.2769 19.3686 9.77635 22.6152 9.77635C22.8213 9.77635 22.998 9.82788 23.2041 9.83524C23.771 8.89293 24.1464 7.77394 24.1464 6.59606C24.1464 3.15075 21.3563 0.353271 17.9036 0.353271ZM37.6921 5.88933C34.74 6.63287 31.4935 8.23038 29.5647 12.4855C27.3856 11.9554 25.0445 11.661 22.6152 11.661C16.2619 11.661 11.0866 13.575 7.53824 16.9025C7.03027 17.3811 5.35915 20.0239 4.24016 19.5528C0.794847 18.1099 2.91504 13.2217 6.59593 15.9013C5.18247 11.7788 0.235352 13.3394 0.235352 17.7271C0.235352 21.8791 3.68066 22.1662 3.00338 24.3821C2.47333 26.1048 2.23776 27.9747 2.23776 29.9771C2.23776 34.6371 5.69779 38.1781 8.18607 40.1658C8.53944 40.4455 9.20936 40.8946 8.83391 42.0504C8.45846 43.2062 7.83271 44.8184 7.83271 44.8184C7.44253 45.8491 7.92105 46.9607 8.9517 47.3509L12.7209 48.7643C13.7516 49.1545 14.8632 48.676 15.2534 47.6453C15.2534 47.6453 15.7908 46.3644 16.1957 45.2896C16.9613 43.2651 17.403 44.8773 22.6152 44.8773C28.0408 44.8773 28.5929 43.8025 29.1524 45.4663C29.5205 46.5484 29.9769 47.6453 29.9769 47.6453C30.3671 48.676 31.4787 49.1545 32.5094 48.7643L36.2786 47.3509C37.3093 46.9607 37.7878 45.8491 37.3976 44.8184L36.8087 43.2283C36.8087 43.2283 36.2124 42.1682 37.5154 41.4614C40.1215 40.048 42.0797 37.9278 43.3459 35.2775C43.6183 34.7107 44.0159 33.923 45.2305 33.923H47.1152C48.1532 33.923 48.9998 33.0764 48.9998 32.0384V26.3845C48.9998 25.3465 48.1532 24.4999 47.1152 24.4999H45.2305C44.2441 24.4999 43.8465 24.0435 43.6993 23.6165C42.5656 20.4436 40.6294 17.543 37.9866 16.078C37.5743 15.8498 37.67 19.3319 38.9289 21.8497C38.4945 21.511 36.1682 19.4129 35.8664 15.7247C35.5645 12.0291 36.2271 9.83524 37.6921 5.88933ZM38.6344 24.4999C40.1951 24.4999 41.4613 25.7661 41.4613 27.3268C41.4613 28.8875 40.1951 30.1538 38.6344 30.1538C37.0737 30.1538 35.8075 28.8875 35.8075 27.3268C35.8075 25.7661 37.0737 24.4999 38.6344 24.4999Z" fill="#8B6826"/>
</g>
<defs>
<clipPath id="clip0_288_863">
<rect width="49" height="49" fill="white"/>
</clipPath>
</defs>
</svg>
