<svg width="34" height="37" viewBox="0 0 34 37" fill="none" xmlns="http://www.w3.org/2000/svg">
<path d="M0 0V4.01893H4.85714V6.71914C4.85714 9.38275 6.13515 11.9393 8.41462 13.8229L13.5659 18.0852L8.41462 22.3474C6.13515 24.231 4.85714 26.7876 4.85714 29.4512V32.1514H0V36.1703H34V32.1514H29.1429V29.4512C29.1429 26.7878 27.8617 24.2309 25.5854 22.3474L20.4342 18.0852L25.5854 13.8229C27.8635 11.9379 29.1429 9.38275 29.1429 6.71914V4.01893H34V0H0ZM9.71429 4.01893H24.2857V6.71914C24.2857 7.91352 23.8568 9.06745 23.0714 10.0473H10.9286C10.1419 9.06829 9.71429 7.9147 9.71429 6.71914V4.01893ZM17 20.9267L22.1512 25.1889C23.5178 26.3197 24.2857 27.8545 24.2857 29.4512V32.1514H21.3781C20.181 29.4882 17 28.1325 17 28.1325C17 28.1325 13.819 29.4882 12.6219 32.1514H9.71429V29.4512C9.71429 27.8507 10.4805 26.3235 11.8488 25.1929L17 20.9267Z" fill="white"/>
</svg>
