<svg width="24" height="24" viewBox="0 0 24 24" fill="none" xmlns="http://www.w3.org/2000/svg">
<path d="M5.20957 3.00008C5.10362 2.99861 4.99843 3.01777 4.90011 3.05644C4.80179 3.09511 4.7123 3.15253 4.63685 3.22534C4.5614 3.29816 4.50148 3.38493 4.46059 3.48061C4.41969 3.57629 4.39863 3.67897 4.39863 3.78268C4.39863 3.8864 4.41969 3.98908 4.46059 4.08476C4.50148 4.18044 4.5614 4.26721 4.63685 4.34002C4.7123 4.41284 4.80179 4.47025 4.90011 4.50892C4.99843 4.5476 5.10362 4.56676 5.20957 4.56529H13.205C13.311 4.56676 13.4162 4.5476 13.5145 4.50892C13.6128 4.47025 13.7023 4.41284 13.7777 4.34002C13.8532 4.26721 13.9131 4.18044 13.954 4.08476C13.9949 3.98908 14.0159 3.8864 14.0159 3.78268C14.0159 3.67897 13.9949 3.57629 13.954 3.48061C13.9131 3.38493 13.8532 3.29816 13.7777 3.22534C13.7023 3.15253 13.6128 3.09511 13.5145 3.05644C13.4162 3.01777 13.311 2.99861 13.205 3.00008H5.20957ZM2.81093 6.1305C2.70498 6.12903 2.59979 6.14819 2.50147 6.18686C2.40316 6.22554 2.31367 6.28295 2.23822 6.35576C2.16276 6.42858 2.10285 6.51535 2.06195 6.61103C2.02106 6.70671 2 6.80939 2 6.91311C2 7.01682 2.02106 7.1195 2.06195 7.21518C2.10285 7.31086 2.16276 7.39763 2.23822 7.47045C2.31367 7.54326 2.40316 7.60068 2.50147 7.63935C2.59979 7.67802 2.70498 7.69718 2.81093 7.69571V21H7.6082V17.8696H10.8064V21H15.6036V7.69571C15.7096 7.69718 15.8148 7.67802 15.9131 7.63935C16.0114 7.60068 16.1009 7.54326 16.1764 7.47045C16.2518 7.39763 16.3117 7.31086 16.3526 7.21518C16.3935 7.1195 16.4146 7.01682 16.4146 6.91311C16.4146 6.80939 16.3935 6.70671 16.3526 6.61103C16.3117 6.51535 16.2518 6.42858 16.1764 6.35576C16.1009 6.28295 16.0114 6.22554 15.9131 6.18686C15.8148 6.14819 15.7096 6.12903 15.6036 6.1305H2.81093ZM4.41002 8.47832H6.00911V10.0435H4.41002V8.47832ZM7.6082 8.47832H10.8064V10.0435H7.6082V8.47832ZM12.4055 8.47832H14.0046V10.0435H12.4055V8.47832ZM17.2027 8.47832V10.8261V12.3913V13.9566V15.5218V17.087V18.6522V21H22V8.47832H17.2027ZM18.8018 10.8261H20.4009V12.3913H18.8018V10.8261ZM4.41002 11.6087H6.00911V13.1739H4.41002V11.6087ZM7.6082 11.6087H10.8064V13.1739H7.6082V11.6087ZM12.4055 11.6087H14.0046V13.1739H12.4055V11.6087ZM18.8018 13.9566H20.4009V15.5218H18.8018V13.9566ZM4.41002 14.7392H6.00911V16.3044H4.41002V14.7392ZM7.6082 14.7392H10.8064V16.3044H7.6082V14.7392ZM12.4055 14.7392H14.0046V16.3044H12.4055V14.7392ZM18.8018 17.087H20.4009V18.6522H18.8018V17.087ZM4.41002 17.8696H6.00911V19.4348H4.41002V17.8696ZM12.4055 17.8696H14.0046V19.4348H12.4055V17.8696Z" fill="#8C6925"/>
</svg>
