<svg width="20" height="24" viewBox="0 0 20 24" fill="none" xmlns="http://www.w3.org/2000/svg">
<path d="M6.03062 0C6.13271 0 6.13271 2.346e-08 6.23086 0.119641C6.33294 0.239283 6.63526 0.589005 6.63526 0.828288C6.63526 1.06297 6.63526 1.65197 6.73341 2.12134C6.93365 2.71034 7.13781 4.24267 7.4362 5.06636C7.73852 5.89005 7.8406 6.36401 7.53828 6.83337C7.23596 7.42238 5.32784 9.66336 5.32784 9.66336C5.32784 9.66336 5.83039 10.8414 6.4311 11.5454C6.93365 12.3691 7.73852 13.5471 8.74362 14.4904C9.74872 15.5534 10.8559 16.4921 11.9592 17.0811C13.0664 15.7881 13.9694 14.7251 14.2717 14.4904C14.574 14.2558 14.574 14.1361 15.0766 14.3754C15.5791 14.6101 16.2819 14.9644 17.0868 15.0794C17.7896 15.1991 18.5944 15.3141 19.097 15.4338C19.5995 15.5534 19.5995 15.5534 19.7016 15.7881C19.9018 16.0228 20 16.3771 20 16.4921C20 16.6118 20 16.9661 20 18.1441C20 19.3221 20 20.9695 20 21.3238C20 21.6781 20 21.6781 19.9018 21.9128C19.7998 22.1475 19.7016 22.7365 19.7016 22.7365C19.7016 22.8561 19.1991 23.0908 18.8967 23.0908C18.5944 23.0908 17.4872 23.0908 16.7845 22.9712C16.0817 22.8561 14.1735 22.3822 13.4668 22.0325C12.764 21.7932 10.4515 20.8544 7.64036 18.3788C5.02552 16.0228 3.11739 12.8431 2.01021 10.2524C0.903024 7.65706 0.302316 4.83168 0.200236 3.41899C-1.35465e-08 2.0063 0 1.41729 0 1.06297C0.102081 0.708646 0.400472 0.354323 0.604633 0.239283C0.804868 0.119641 1.10719 0 1.40558 0C1.70789 0 2.51276 0 3.61995 0C4.7232 0 6.03062 0 6.03062 0Z" fill="white"/>
</svg>
