<svg width="25" height="25" viewBox="0 0 25 25" fill="none" xmlns="http://www.w3.org/2000/svg">
<path d="M1.04199 10.9375V16.9271C1.04199 18.7937 2.56074 20.3125 4.42741 20.3125H20.5732C22.4399 20.3125 23.9587 18.7937 23.9587 16.9271V10.9375H1.04199ZM4.42741 17.1875C3.99616 17.1875 3.64616 16.8375 3.64616 16.4062C3.64616 15.975 3.99616 15.625 4.42741 15.625C4.85866 15.625 5.20866 15.975 5.20866 16.4062C5.20866 16.8375 4.85866 17.1875 4.42741 17.1875ZM4.42741 14.5833C3.99616 14.5833 3.64616 14.2333 3.64616 13.8021C3.64616 13.3708 3.99616 13.0208 4.42741 13.0208C4.85866 13.0208 5.20866 13.3708 5.20866 13.8021C5.20866 14.2333 4.85866 14.5833 4.42741 14.5833ZM6.51074 17.1875C6.07949 17.1875 5.72949 16.8375 5.72949 16.4062C5.72949 15.975 6.07949 15.625 6.51074 15.625C6.94199 15.625 7.29199 15.975 7.29199 16.4062C7.29199 16.8375 6.94199 17.1875 6.51074 17.1875ZM6.51074 14.5833C6.07949 14.5833 5.72949 14.2333 5.72949 13.8021C5.72949 13.3708 6.07949 13.0208 6.51074 13.0208C6.94199 13.0208 7.29199 13.3708 7.29199 13.8021C7.29199 14.2333 6.94199 14.5833 6.51074 14.5833ZM8.59408 17.1875C8.16283 17.1875 7.81283 16.8375 7.81283 16.4062C7.81283 15.975 8.16283 15.625 8.59408 15.625C9.02533 15.625 9.37533 15.975 9.37533 16.4062C9.37533 16.8375 9.02533 17.1875 8.59408 17.1875ZM8.59408 14.5833C8.16283 14.5833 7.81283 14.2333 7.81283 13.8021C7.81283 13.3708 8.16283 13.0208 8.59408 13.0208C9.02533 13.0208 9.37533 13.3708 9.37533 13.8021C9.37533 14.2333 9.02533 14.5833 8.59408 14.5833ZM10.6774 17.1875C10.2462 17.1875 9.89616 16.8375 9.89616 16.4062C9.89616 15.975 10.2462 15.625 10.6774 15.625C11.1087 15.625 11.4587 15.975 11.4587 16.4062C11.4587 16.8375 11.1087 17.1875 10.6774 17.1875ZM10.6774 14.5833C10.2462 14.5833 9.89616 14.2333 9.89616 13.8021C9.89616 13.3708 10.2462 13.0208 10.6774 13.0208C11.1087 13.0208 11.4587 13.3708 11.4587 13.8021C11.4587 14.2333 11.1087 14.5833 10.6774 14.5833ZM14.3232 17.1875C13.892 17.1875 13.542 16.8375 13.542 16.4062C13.542 15.975 13.892 15.625 14.3232 15.625C14.7545 15.625 15.1045 15.975 15.1045 16.4062C15.1045 16.8375 14.7545 17.1875 14.3232 17.1875ZM14.3232 14.5833C13.892 14.5833 13.542 14.2333 13.542 13.8021C13.542 13.3708 13.892 13.0208 14.3232 13.0208C14.7545 13.0208 15.1045 13.3708 15.1045 13.8021C15.1045 14.2333 14.7545 14.5833 14.3232 14.5833ZM16.4066 17.1875C15.9753 17.1875 15.6253 16.8375 15.6253 16.4062C15.6253 15.975 15.9753 15.625 16.4066 15.625C16.8378 15.625 17.1878 15.975 17.1878 16.4062C17.1878 16.8375 16.8378 17.1875 16.4066 17.1875ZM16.4066 14.5833C15.9753 14.5833 15.6253 14.2333 15.6253 13.8021C15.6253 13.3708 15.9753 13.0208 16.4066 13.0208C16.8378 13.0208 17.1878 13.3708 17.1878 13.8021C17.1878 14.2333 16.8378 14.5833 16.4066 14.5833ZM18.4899 17.1875C18.0587 17.1875 17.7087 16.8375 17.7087 16.4062C17.7087 15.975 18.0587 15.625 18.4899 15.625C18.9212 15.625 19.2712 15.975 19.2712 16.4062C19.2712 16.8375 18.9212 17.1875 18.4899 17.1875ZM18.4899 14.5833C18.0587 14.5833 17.7087 14.2333 17.7087 13.8021C17.7087 13.3708 18.0587 13.0208 18.4899 13.0208C18.9212 13.0208 19.2712 13.3708 19.2712 13.8021C19.2712 14.2333 18.9212 14.5833 18.4899 14.5833ZM20.5732 17.1875C20.142 17.1875 19.792 16.8375 19.792 16.4062C19.792 15.975 20.142 15.625 20.5732 15.625C21.0045 15.625 21.3545 15.975 21.3545 16.4062C21.3545 16.8375 21.0045 17.1875 20.5732 17.1875ZM20.5732 14.5833C20.142 14.5833 19.792 14.2333 19.792 13.8021C19.792 13.3708 20.142 13.0208 20.5732 13.0208C21.0045 13.0208 21.3545 13.3708 21.3545 13.8021C21.3545 14.2333 21.0045 14.5833 20.5732 14.5833ZM23.9587 8.85417V8.07292C23.9587 6.20625 22.4399 4.6875 20.5732 4.6875H4.42741C2.56074 4.6875 1.04199 6.20625 1.04199 8.07292V8.85417H23.9587Z" fill="#8C6925"/>
</svg>
