<svg width="20" height="20" viewBox="0 0 20 20" fill="none" xmlns="http://www.w3.org/2000/svg">
<g clip-path="url(#clip0_250_1272)">
<path d="M4.7998 0C4.3623 0 3.9998 0.3625 3.9998 0.8V1.6H1.5998C1.13574 1.6 0.799805 1.93594 0.799805 2.4V5.2H19.1998V2.4C19.1998 1.93594 18.8639 1.6 18.3998 1.6H15.9998V0.8C15.9998 0.3625 15.6373 0 15.1998 0H14.3998C13.9623 0 13.5998 0.3625 13.5998 0.8V1.6H6.3998V0.8C6.3998 0.3625 6.0373 0 5.5998 0H4.7998ZM4.7998 0.8H5.5998V3.2H4.7998V0.8ZM14.3998 0.8H15.1998V3.2H14.3998V0.8ZM0.799805 6V18.4C0.799805 18.8422 1.15762 19.2 1.5998 19.2H13.6107C14.2779 19.7 15.1029 20 15.9998 20C18.2061 20 19.9998 18.2063 19.9998 16C19.9998 15.1031 19.6998 14.2781 19.1998 13.6109V6H0.799805ZM4.7998 8.4H6.7998V10.4H4.7998V8.4ZM7.5998 8.4H9.5998V10.4H7.5998V8.4ZM10.3998 8.4H12.3998V10.4H10.3998V8.4ZM13.1998 8.4H15.1998V10.4H13.1998V8.4ZM4.7998 11.2H6.7998V13.2H4.7998V11.2ZM7.5998 11.2H9.5998V13.2H7.5998V11.2ZM10.3998 11.2H12.3998V13.2H10.3998V11.2ZM13.1998 11.2H15.1998V12.0813C14.4295 12.2375 13.7404 12.6172 13.1998 13.1484V11.2ZM15.9998 12.8C17.7639 12.8 19.1998 14.2359 19.1998 16C19.1998 17.7641 17.7639 19.2 15.9998 19.2C14.2357 19.2 12.7998 17.7641 12.7998 16C12.7998 14.2359 14.2357 12.8 15.9998 12.8ZM15.9998 13.6391C15.7592 13.6391 15.5998 13.8 15.5998 14.0391V15.6H14.0389C13.7998 15.6 13.6389 15.7594 13.6389 16C13.6389 16.2406 13.7998 16.4 14.0389 16.4H15.5998V17.9609C15.5998 18.2 15.7592 18.3609 15.9998 18.3609C16.2404 18.3609 16.3998 18.2 16.3998 17.9609V16.4H17.9607C18.1998 16.4 18.3607 16.2406 18.3607 16C18.3607 15.7594 18.1998 15.6 17.9607 15.6H16.3998V14.0391C16.3998 13.8 16.2404 13.6391 15.9998 13.6391ZM4.7998 14H6.7998V16H4.7998V14ZM7.5998 14H9.5998V16H7.5998V14ZM10.3998 14H12.3998V14.2688C12.1467 14.7922 11.9998 15.3797 11.9998 16H10.3998V14Z" fill="#DC9507"/>
<path d="M4.7998 0C4.3623 0 3.9998 0.3625 3.9998 0.8V1.6H1.5998C1.13574 1.6 0.799805 1.93594 0.799805 2.4V5.2H19.1998V2.4C19.1998 1.93594 18.8639 1.6 18.3998 1.6H15.9998V0.8C15.9998 0.3625 15.6373 0 15.1998 0H14.3998C13.9623 0 13.5998 0.3625 13.5998 0.8V1.6H6.3998V0.8C6.3998 0.3625 6.0373 0 5.5998 0H4.7998ZM4.7998 0.8H5.5998V3.2H4.7998V0.8ZM14.3998 0.8H15.1998V3.2H14.3998V0.8ZM0.799805 6V18.4C0.799805 18.8422 1.15762 19.2 1.5998 19.2H13.6107C14.2779 19.7 15.1029 20 15.9998 20C18.2061 20 19.9998 18.2063 19.9998 16C19.9998 15.1031 19.6998 14.2781 19.1998 13.6109V6H0.799805ZM4.7998 8.4H6.7998V10.4H4.7998V8.4ZM7.5998 8.4H9.5998V10.4H7.5998V8.4ZM10.3998 8.4H12.3998V10.4H10.3998V8.4ZM13.1998 8.4H15.1998V10.4H13.1998V8.4ZM4.7998 11.2H6.7998V13.2H4.7998V11.2ZM7.5998 11.2H9.5998V13.2H7.5998V11.2ZM10.3998 11.2H12.3998V13.2H10.3998V11.2ZM13.1998 11.2H15.1998V12.0813C14.4295 12.2375 13.7404 12.6172 13.1998 13.1484V11.2ZM15.9998 12.8C17.7639 12.8 19.1998 14.2359 19.1998 16C19.1998 17.7641 17.7639 19.2 15.9998 19.2C14.2357 19.2 12.7998 17.7641 12.7998 16C12.7998 14.2359 14.2357 12.8 15.9998 12.8ZM15.9998 13.6391C15.7592 13.6391 15.5998 13.8 15.5998 14.0391V15.6H14.0389C13.7998 15.6 13.6389 15.7594 13.6389 16C13.6389 16.2406 13.7998 16.4 14.0389 16.4H15.5998V17.9609C15.5998 18.2 15.7592 18.3609 15.9998 18.3609C16.2404 18.3609 16.3998 18.2 16.3998 17.9609V16.4H17.9607C18.1998 16.4 18.3607 16.2406 18.3607 16C18.3607 15.7594 18.1998 15.6 17.9607 15.6H16.3998V14.0391C16.3998 13.8 16.2404 13.6391 15.9998 13.6391ZM4.7998 14H6.7998V16H4.7998V14ZM7.5998 14H9.5998V16H7.5998V14ZM10.3998 14H12.3998V14.2688C12.1467 14.7922 11.9998 15.3797 11.9998 16H10.3998V14Z" fill="url(#paint0_radial_250_1272)" fill-opacity="0.7"/>
<path d="M4.7998 0C4.3623 0 3.9998 0.3625 3.9998 0.8V1.6H1.5998C1.13574 1.6 0.799805 1.93594 0.799805 2.4V5.2H19.1998V2.4C19.1998 1.93594 18.8639 1.6 18.3998 1.6H15.9998V0.8C15.9998 0.3625 15.6373 0 15.1998 0H14.3998C13.9623 0 13.5998 0.3625 13.5998 0.8V1.6H6.3998V0.8C6.3998 0.3625 6.0373 0 5.5998 0H4.7998ZM4.7998 0.8H5.5998V3.2H4.7998V0.8ZM14.3998 0.8H15.1998V3.2H14.3998V0.8ZM0.799805 6V18.4C0.799805 18.8422 1.15762 19.2 1.5998 19.2H13.6107C14.2779 19.7 15.1029 20 15.9998 20C18.2061 20 19.9998 18.2063 19.9998 16C19.9998 15.1031 19.6998 14.2781 19.1998 13.6109V6H0.799805ZM4.7998 8.4H6.7998V10.4H4.7998V8.4ZM7.5998 8.4H9.5998V10.4H7.5998V8.4ZM10.3998 8.4H12.3998V10.4H10.3998V8.4ZM13.1998 8.4H15.1998V10.4H13.1998V8.4ZM4.7998 11.2H6.7998V13.2H4.7998V11.2ZM7.5998 11.2H9.5998V13.2H7.5998V11.2ZM10.3998 11.2H12.3998V13.2H10.3998V11.2ZM13.1998 11.2H15.1998V12.0813C14.4295 12.2375 13.7404 12.6172 13.1998 13.1484V11.2ZM15.9998 12.8C17.7639 12.8 19.1998 14.2359 19.1998 16C19.1998 17.7641 17.7639 19.2 15.9998 19.2C14.2357 19.2 12.7998 17.7641 12.7998 16C12.7998 14.2359 14.2357 12.8 15.9998 12.8ZM15.9998 13.6391C15.7592 13.6391 15.5998 13.8 15.5998 14.0391V15.6H14.0389C13.7998 15.6 13.6389 15.7594 13.6389 16C13.6389 16.2406 13.7998 16.4 14.0389 16.4H15.5998V17.9609C15.5998 18.2 15.7592 18.3609 15.9998 18.3609C16.2404 18.3609 16.3998 18.2 16.3998 17.9609V16.4H17.9607C18.1998 16.4 18.3607 16.2406 18.3607 16C18.3607 15.7594 18.1998 15.6 17.9607 15.6H16.3998V14.0391C16.3998 13.8 16.2404 13.6391 15.9998 13.6391ZM4.7998 14H6.7998V16H4.7998V14ZM7.5998 14H9.5998V16H7.5998V14ZM10.3998 14H12.3998V14.2688C12.1467 14.7922 11.9998 15.3797 11.9998 16H10.3998V14Z" fill="url(#paint1_radial_250_1272)"/>
<path d="M4.7998 0C4.3623 0 3.9998 0.3625 3.9998 0.8V1.6H1.5998C1.13574 1.6 0.799805 1.93594 0.799805 2.4V5.2H19.1998V2.4C19.1998 1.93594 18.8639 1.6 18.3998 1.6H15.9998V0.8C15.9998 0.3625 15.6373 0 15.1998 0H14.3998C13.9623 0 13.5998 0.3625 13.5998 0.8V1.6H6.3998V0.8C6.3998 0.3625 6.0373 0 5.5998 0H4.7998ZM4.7998 0.8H5.5998V3.2H4.7998V0.8ZM14.3998 0.8H15.1998V3.2H14.3998V0.8ZM0.799805 6V18.4C0.799805 18.8422 1.15762 19.2 1.5998 19.2H13.6107C14.2779 19.7 15.1029 20 15.9998 20C18.2061 20 19.9998 18.2063 19.9998 16C19.9998 15.1031 19.6998 14.2781 19.1998 13.6109V6H0.799805ZM4.7998 8.4H6.7998V10.4H4.7998V8.4ZM7.5998 8.4H9.5998V10.4H7.5998V8.4ZM10.3998 8.4H12.3998V10.4H10.3998V8.4ZM13.1998 8.4H15.1998V10.4H13.1998V8.4ZM4.7998 11.2H6.7998V13.2H4.7998V11.2ZM7.5998 11.2H9.5998V13.2H7.5998V11.2ZM10.3998 11.2H12.3998V13.2H10.3998V11.2ZM13.1998 11.2H15.1998V12.0813C14.4295 12.2375 13.7404 12.6172 13.1998 13.1484V11.2ZM15.9998 12.8C17.7639 12.8 19.1998 14.2359 19.1998 16C19.1998 17.7641 17.7639 19.2 15.9998 19.2C14.2357 19.2 12.7998 17.7641 12.7998 16C12.7998 14.2359 14.2357 12.8 15.9998 12.8ZM15.9998 13.6391C15.7592 13.6391 15.5998 13.8 15.5998 14.0391V15.6H14.0389C13.7998 15.6 13.6389 15.7594 13.6389 16C13.6389 16.2406 13.7998 16.4 14.0389 16.4H15.5998V17.9609C15.5998 18.2 15.7592 18.3609 15.9998 18.3609C16.2404 18.3609 16.3998 18.2 16.3998 17.9609V16.4H17.9607C18.1998 16.4 18.3607 16.2406 18.3607 16C18.3607 15.7594 18.1998 15.6 17.9607 15.6H16.3998V14.0391C16.3998 13.8 16.2404 13.6391 15.9998 13.6391ZM4.7998 14H6.7998V16H4.7998V14ZM7.5998 14H9.5998V16H7.5998V14ZM10.3998 14H12.3998V14.2688C12.1467 14.7922 11.9998 15.3797 11.9998 16H10.3998V14Z" fill="black" fill-opacity="0.2"/>
<path d="M4.7998 0C4.3623 0 3.9998 0.3625 3.9998 0.8V1.6H1.5998C1.13574 1.6 0.799805 1.93594 0.799805 2.4V5.2H19.1998V2.4C19.1998 1.93594 18.8639 1.6 18.3998 1.6H15.9998V0.8C15.9998 0.3625 15.6373 0 15.1998 0H14.3998C13.9623 0 13.5998 0.3625 13.5998 0.8V1.6H6.3998V0.8C6.3998 0.3625 6.0373 0 5.5998 0H4.7998ZM4.7998 0.8H5.5998V3.2H4.7998V0.8ZM14.3998 0.8H15.1998V3.2H14.3998V0.8ZM0.799805 6V18.4C0.799805 18.8422 1.15762 19.2 1.5998 19.2H13.6107C14.2779 19.7 15.1029 20 15.9998 20C18.2061 20 19.9998 18.2063 19.9998 16C19.9998 15.1031 19.6998 14.2781 19.1998 13.6109V6H0.799805ZM4.7998 8.4H6.7998V10.4H4.7998V8.4ZM7.5998 8.4H9.5998V10.4H7.5998V8.4ZM10.3998 8.4H12.3998V10.4H10.3998V8.4ZM13.1998 8.4H15.1998V10.4H13.1998V8.4ZM4.7998 11.2H6.7998V13.2H4.7998V11.2ZM7.5998 11.2H9.5998V13.2H7.5998V11.2ZM10.3998 11.2H12.3998V13.2H10.3998V11.2ZM13.1998 11.2H15.1998V12.0813C14.4295 12.2375 13.7404 12.6172 13.1998 13.1484V11.2ZM15.9998 12.8C17.7639 12.8 19.1998 14.2359 19.1998 16C19.1998 17.7641 17.7639 19.2 15.9998 19.2C14.2357 19.2 12.7998 17.7641 12.7998 16C12.7998 14.2359 14.2357 12.8 15.9998 12.8ZM15.9998 13.6391C15.7592 13.6391 15.5998 13.8 15.5998 14.0391V15.6H14.0389C13.7998 15.6 13.6389 15.7594 13.6389 16C13.6389 16.2406 13.7998 16.4 14.0389 16.4H15.5998V17.9609C15.5998 18.2 15.7592 18.3609 15.9998 18.3609C16.2404 18.3609 16.3998 18.2 16.3998 17.9609V16.4H17.9607C18.1998 16.4 18.3607 16.2406 18.3607 16C18.3607 15.7594 18.1998 15.6 17.9607 15.6H16.3998V14.0391C16.3998 13.8 16.2404 13.6391 15.9998 13.6391ZM4.7998 14H6.7998V16H4.7998V14ZM7.5998 14H9.5998V16H7.5998V14ZM10.3998 14H12.3998V14.2688C12.1467 14.7922 11.9998 15.3797 11.9998 16H10.3998V14Z" fill="black" fill-opacity="0.2"/>
</g>
<defs>
<radialGradient id="paint0_radial_250_1272" cx="0" cy="0" r="1" gradientTransform="matrix(10.1333 13.0556 -12.5333 10.5556 5.86647 4.16667)" gradientUnits="userSpaceOnUse">
<stop stop-color="white" stop-opacity="0.59"/>
<stop offset="0.697917" stop-color="white" stop-opacity="0"/>
<stop offset="1" stop-color="white" stop-opacity="0"/>
</radialGradient>
<radialGradient id="paint1_radial_250_1272" cx="0" cy="0" r="1" gradientTransform="matrix(-1.05206 -17.0833 -17.6806 10.9306 17.3697 17.5)" gradientUnits="userSpaceOnUse">
<stop stop-opacity="0.23"/>
<stop offset="0.861815" stop-opacity="0"/>
</radialGradient>
<clipPath id="clip0_250_1272">
<rect width="20" height="20" fill="white"/>
</clipPath>
</defs>
</svg>
