<svg width="38" height="35" viewBox="0 0 38 35" fill="none" xmlns="http://www.w3.org/2000/svg">
<path d="M29.8784 32.9943H8.46361C7.36536 33.0416 6.27426 32.7958 5.30232 32.2823C4.33035 31.7688 3.51251 31.006 2.9326 30.0723C2.35268 29.1384 2.03156 28.067 2.00221 26.9682C1.97287 25.8692 2.23637 24.7825 2.76563 23.819L13.473 5.21016C14.0666 4.2303 14.9029 3.4201 15.901 2.85778C16.8991 2.29545 18.0253 2 19.1709 2C20.3165 2 21.4428 2.29545 22.4409 2.85778C23.439 3.4201 24.2755 4.2303 24.869 5.21016L35.5764 23.819C36.1056 24.7825 36.3691 25.8692 36.3397 26.9682C36.3104 28.067 35.9894 29.1384 35.4094 30.0723C34.8295 31.006 34.0114 31.7688 33.0395 32.2823C32.0676 32.7958 30.9765 33.0416 29.8784 32.9943Z" stroke="#E9BE1A" stroke-width="3" stroke-linecap="round" stroke-linejoin="round"/>
<path d="M18.9023 26.5354C18.983 26.5369 19.0638 26.5382 19.1445 26.5383L19.1562 25.9368H19.1494M18.9023 26.5354L19.1494 25.9368M18.9023 26.5354L19.1494 25.9368M18.9023 26.5354C18.846 26.5344 18.7897 26.5332 18.7334 26.5315M19.1494 25.9368H19.1445M18.7334 26.5315L19.1445 25.9368M18.7334 26.5315L19.1445 25.9368M18.7334 26.5315C18.5825 26.527 18.4318 26.5202 18.2812 26.511M19.1445 25.9368H19.1309M19.7578 26.5256C19.6446 26.5303 19.5314 26.5334 19.418 26.5354L19.1748 25.9377M19.7578 26.5256L19.1748 25.9377M19.7578 26.5256C20.1735 26.5086 20.5875 26.4738 20.999 26.4211L21.0283 26.3069M19.7578 26.5256L19.1748 25.9377M19.1748 25.9377L19.1738 25.9368H19.2383L21.0283 26.3069M18.2812 26.511L19.1309 25.9368M18.2812 26.511L19.1309 25.9368M18.2812 26.511C18.1146 26.5008 17.9483 26.4879 17.7822 26.4719L19.1162 25.9368H19.1309M21.0283 26.3069C21.0536 26.1845 21.0653 26.0605 21.0664 25.9368H19.2422L21.0283 26.3069ZM17.2461 25.9368C17.2476 26.1006 17.2711 26.2628 17.3135 26.4192C17.4681 26.4392 17.6231 26.456 17.7783 26.4709L19.1133 25.9368H17.2461ZM17.2461 25.9368L19.1562 25.9192L17.2891 25.5334C17.2607 25.6657 17.2461 25.8009 17.2461 25.9368ZM19.1914 24.009L19.1562 25.9182L17.8164 24.5676M19.1914 24.009C18.9367 24.0068 18.6842 24.0548 18.4482 24.1506M19.1914 24.009L19.1748 25.8918L20.2412 24.3469M19.1914 24.009L19.332 24.0168C19.6576 24.0469 19.9707 24.1604 20.2412 24.3469M17.8164 24.5676C17.9972 24.3884 18.2124 24.2465 18.4482 24.1506M17.8164 24.5676C17.6356 24.7468 17.4924 24.9605 17.3945 25.1956L17.3301 25.3743C17.3143 25.4261 17.3005 25.4786 17.2891 25.5315L19.1553 25.9182L19.1025 25.8655L17.8164 24.5676ZM18.4482 24.1506L19.1455 25.8674V25.8655L18.4482 24.1506ZM20.9307 25.2083C21.0195 25.4299 21.0642 25.6652 21.0664 25.9016L19.1738 25.9182V25.9124L20.9307 25.2083ZM20.9307 25.2083C20.8797 25.0812 20.8143 24.9612 20.7383 24.8489M20.9307 25.2083L19.1738 25.9114V25.9075M20.7383 24.8489L19.1738 25.9075M20.7383 24.8489L19.1738 25.9075M20.7383 24.8489V24.8479M19.1738 25.9075L20.7383 24.8479M20.7383 24.8479C20.6058 24.6524 20.4375 24.4823 20.2412 24.3469M20.7383 24.8479L19.1738 25.9065L19.1748 25.8928L20.2412 24.3469M17.9951 20.0579L17.8301 19.8928L17.8662 21.2375L17.8721 21.3665C17.9017 21.666 18.0344 21.9476 18.249 22.1624L18.3447 22.2493C18.5752 22.4383 18.8645 22.5431 19.165 22.5452L19.1738 22.5461C19.4773 22.5461 19.77 22.44 20.0029 22.2493L20.0996 22.1624M17.9951 20.0579L18.2168 21.1809M17.9951 20.0579L18.2168 21.1809M17.9951 20.0579L19.1406 21.2034M18.2168 21.1809L19.1406 21.2034M18.2168 21.1809L19.1406 21.2034M19.1406 21.2034H19.1396L20.0996 22.1624M20.0996 22.1624L19.1738 21.2366M20.0996 22.1624C20.3141 21.9477 20.4459 21.6659 20.4756 21.3665L20.4824 21.2375L20.5156 19.8948M19.1738 21.2366L20.5156 19.8948M19.1738 21.2366L20.5156 19.8948M19.1738 21.2366V21.2356L17.9941 20.0559M20.5156 19.8948L20.6279 15.3743L19.3994 12.6155V12.6135L20.6279 15.3694L20.6973 12.5842L20.7061 12.2522C20.7179 12.1406 20.7165 12.0281 20.7041 11.9172C20.4356 11.8876 20.1663 11.865 19.8965 11.8508L19.2959 12.0452M19.0508 11.8313C19.1719 11.8304 19.293 11.831 19.4141 11.8333M19.0508 11.8313L19.165 12.0862V12.0872M19.0508 11.8313L19.165 12.0872M19.0508 11.8313C18.9948 11.8317 18.9388 11.8331 18.8828 11.8342M19.4141 11.8333L19.4131 11.8645M19.4141 11.8333L19.4131 11.8645M19.4141 11.8333C19.4255 11.8335 19.4369 11.833 19.4482 11.8333M19.4131 11.8645L19.2969 11.969M19.4131 11.8645L19.4482 11.8333M19.2969 11.969L19.2959 12.0452M19.2969 11.969L19.2959 12.0452M19.2969 11.969L19.4482 11.8333M19.2959 12.0452L19.8955 11.8508C19.7465 11.843 19.5975 11.8363 19.4482 11.8333M17.9941 20.0559L17.8086 19.1194M17.9941 20.0559L17.8291 19.8909L17.8086 19.1194M17.9941 20.0559L17.8086 19.1194M17.8086 19.1194L17.708 15.3567M17.708 15.3567L19.1094 12.2122H19.1104L19.165 12.0891M17.708 15.3567L19.1641 12.0881H19.165M17.708 15.3567L17.6562 13.4456M19.165 12.0891L19.2217 12.2151L19.165 12.0872M19.165 12.0891H19.1641L19.165 12.0881M19.165 12.0891V12.0881M19.165 12.0872V12.0881M19.165 12.0872L18.8828 11.8342M19.165 12.0872L18.8828 11.8342M17.6562 13.4456L19.0244 12.2141M17.6562 13.4456L17.6338 12.5842M17.6562 13.4456L19.0244 12.2141M19.0244 12.2141L18.7529 12.2209M19.0244 12.2141L18.7529 12.2209M18.7529 12.2209L17.6338 12.5842M18.7529 12.2209L17.6338 12.5842M17.6338 12.5842L17.625 12.2522C17.6131 12.14 17.6134 12.0268 17.626 11.9153C18.0443 11.8696 18.4636 11.8424 18.8828 11.8342M19.417 26.5354C19.3343 26.5368 19.2517 26.5383 19.1689 26.5383L19.1738 25.9377L19.417 26.5354Z" fill="#E9BE1A" stroke="#E9BE1A" stroke-width="32"/>
</svg>
