<svg width="20" height="15" viewBox="0 0 20 15" fill="none" xmlns="http://www.w3.org/2000/svg">
<path d="M1.53846 0C0.688462 0 0 0.67125 0 1.5V6.75H5.45373C5.82142 4.62525 7.71692 3 10 3C12.2831 3 14.1778 4.62525 14.5463 6.75H20V1.5C20 0.67125 19.3115 0 18.4615 0H1.53846ZM10 4.5C9.18395 4.5 8.40132 4.81607 7.82429 5.37868C7.24725 5.94129 6.92308 6.70435 6.92308 7.5C6.92308 8.29565 7.24725 9.05871 7.82429 9.62132C8.40132 10.1839 9.18395 10.5 10 10.5C10.8161 10.5 11.5987 10.1839 12.1757 9.62132C12.7527 9.05871 13.0769 8.29565 13.0769 7.5C13.0769 6.70435 12.7527 5.94129 12.1757 5.37868C11.5987 4.81607 10.8161 4.5 10 4.5ZM0 8.25V13.5C0 14.3287 0.688462 15 1.53846 15H18.4615C19.3115 15 20 14.3287 20 13.5V8.25H14.5463C14.1786 10.3748 12.2831 12 10 12C7.71692 12 5.82219 10.3748 5.45373 8.25H0Z" fill="#8C6925"/>
</svg>
