<svg width="20" height="20" viewBox="0 0 20 20" fill="none" xmlns="http://www.w3.org/2000/svg">
<path d="M10 0C4.50284 0 0 4.50284 0 10C0 15.4972 4.50284 20 10 20C15.4972 20 20 15.4972 20 10C20 4.50284 15.4972 0 10 0ZM9.09091 2.10227V9.09091H6.42045C6.52699 7.08097 6.94602 5.26278 7.58523 3.97727C8.04332 3.05043 8.57244 2.43253 9.09091 2.10227ZM10.9091 2.10227C11.4276 2.43253 11.9567 3.05043 12.4148 3.97727C13.054 5.26278 13.473 7.08097 13.5795 9.09091H10.9091V2.10227ZM6.19318 2.75568C6.11506 2.89418 6.03693 3.03622 5.96591 3.18182C5.17045 4.78338 4.6804 6.83239 4.57386 9.09091H1.875C2.18395 6.34943 3.85298 3.99148 6.19318 2.75568ZM13.8068 2.75568C16.147 3.99148 17.8161 6.34943 18.125 9.09091H15.4261C15.3196 6.83239 14.8295 4.78338 14.0341 3.18182C13.9631 3.03622 13.8849 2.89418 13.8068 2.75568ZM1.875 10.9091H4.57386C4.6804 13.1676 5.17045 15.2166 5.96591 16.8182C6.03693 16.9638 6.11506 17.1058 6.19318 17.2443C3.85298 16.0085 2.18395 13.6506 1.875 10.9091ZM6.42045 10.9091H9.09091V17.8977C8.57244 17.5675 8.04332 16.9496 7.58523 16.0227C6.94602 14.7372 6.52699 12.919 6.42045 10.9091ZM10.9091 10.9091H13.5795C13.473 12.919 13.054 14.7372 12.4148 16.0227C11.9567 16.9496 11.4276 17.5675 10.9091 17.8977V10.9091ZM15.4261 10.9091H18.125C17.8161 13.6506 16.147 16.0085 13.8068 17.2443C13.8849 17.1058 13.9631 16.9638 14.0341 16.8182C14.8295 15.2166 15.3196 13.1676 15.4261 10.9091Z" fill="#DC9507"/>
<path d="M10 0C4.50284 0 0 4.50284 0 10C0 15.4972 4.50284 20 10 20C15.4972 20 20 15.4972 20 10C20 4.50284 15.4972 0 10 0ZM9.09091 2.10227V9.09091H6.42045C6.52699 7.08097 6.94602 5.26278 7.58523 3.97727C8.04332 3.05043 8.57244 2.43253 9.09091 2.10227ZM10.9091 2.10227C11.4276 2.43253 11.9567 3.05043 12.4148 3.97727C13.054 5.26278 13.473 7.08097 13.5795 9.09091H10.9091V2.10227ZM6.19318 2.75568C6.11506 2.89418 6.03693 3.03622 5.96591 3.18182C5.17045 4.78338 4.6804 6.83239 4.57386 9.09091H1.875C2.18395 6.34943 3.85298 3.99148 6.19318 2.75568ZM13.8068 2.75568C16.147 3.99148 17.8161 6.34943 18.125 9.09091H15.4261C15.3196 6.83239 14.8295 4.78338 14.0341 3.18182C13.9631 3.03622 13.8849 2.89418 13.8068 2.75568ZM1.875 10.9091H4.57386C4.6804 13.1676 5.17045 15.2166 5.96591 16.8182C6.03693 16.9638 6.11506 17.1058 6.19318 17.2443C3.85298 16.0085 2.18395 13.6506 1.875 10.9091ZM6.42045 10.9091H9.09091V17.8977C8.57244 17.5675 8.04332 16.9496 7.58523 16.0227C6.94602 14.7372 6.52699 12.919 6.42045 10.9091ZM10.9091 10.9091H13.5795C13.473 12.919 13.054 14.7372 12.4148 16.0227C11.9567 16.9496 11.4276 17.5675 10.9091 17.8977V10.9091ZM15.4261 10.9091H18.125C17.8161 13.6506 16.147 16.0085 13.8068 17.2443C13.8849 17.1058 13.9631 16.9638 14.0341 16.8182C14.8295 15.2166 15.3196 13.1676 15.4261 10.9091Z" fill="url(#paint0_radial_250_1284)" fill-opacity="0.7"/>
<path d="M10 0C4.50284 0 0 4.50284 0 10C0 15.4972 4.50284 20 10 20C15.4972 20 20 15.4972 20 10C20 4.50284 15.4972 0 10 0ZM9.09091 2.10227V9.09091H6.42045C6.52699 7.08097 6.94602 5.26278 7.58523 3.97727C8.04332 3.05043 8.57244 2.43253 9.09091 2.10227ZM10.9091 2.10227C11.4276 2.43253 11.9567 3.05043 12.4148 3.97727C13.054 5.26278 13.473 7.08097 13.5795 9.09091H10.9091V2.10227ZM6.19318 2.75568C6.11506 2.89418 6.03693 3.03622 5.96591 3.18182C5.17045 4.78338 4.6804 6.83239 4.57386 9.09091H1.875C2.18395 6.34943 3.85298 3.99148 6.19318 2.75568ZM13.8068 2.75568C16.147 3.99148 17.8161 6.34943 18.125 9.09091H15.4261C15.3196 6.83239 14.8295 4.78338 14.0341 3.18182C13.9631 3.03622 13.8849 2.89418 13.8068 2.75568ZM1.875 10.9091H4.57386C4.6804 13.1676 5.17045 15.2166 5.96591 16.8182C6.03693 16.9638 6.11506 17.1058 6.19318 17.2443C3.85298 16.0085 2.18395 13.6506 1.875 10.9091ZM6.42045 10.9091H9.09091V17.8977C8.57244 17.5675 8.04332 16.9496 7.58523 16.0227C6.94602 14.7372 6.52699 12.919 6.42045 10.9091ZM10.9091 10.9091H13.5795C13.473 12.919 13.054 14.7372 12.4148 16.0227C11.9567 16.9496 11.4276 17.5675 10.9091 17.8977V10.9091ZM15.4261 10.9091H18.125C17.8161 13.6506 16.147 16.0085 13.8068 17.2443C13.8849 17.1058 13.9631 16.9638 14.0341 16.8182C14.8295 15.2166 15.3196 13.1676 15.4261 10.9091Z" fill="url(#paint1_radial_250_1284)"/>
<path d="M10 0C4.50284 0 0 4.50284 0 10C0 15.4972 4.50284 20 10 20C15.4972 20 20 15.4972 20 10C20 4.50284 15.4972 0 10 0ZM9.09091 2.10227V9.09091H6.42045C6.52699 7.08097 6.94602 5.26278 7.58523 3.97727C8.04332 3.05043 8.57244 2.43253 9.09091 2.10227ZM10.9091 2.10227C11.4276 2.43253 11.9567 3.05043 12.4148 3.97727C13.054 5.26278 13.473 7.08097 13.5795 9.09091H10.9091V2.10227ZM6.19318 2.75568C6.11506 2.89418 6.03693 3.03622 5.96591 3.18182C5.17045 4.78338 4.6804 6.83239 4.57386 9.09091H1.875C2.18395 6.34943 3.85298 3.99148 6.19318 2.75568ZM13.8068 2.75568C16.147 3.99148 17.8161 6.34943 18.125 9.09091H15.4261C15.3196 6.83239 14.8295 4.78338 14.0341 3.18182C13.9631 3.03622 13.8849 2.89418 13.8068 2.75568ZM1.875 10.9091H4.57386C4.6804 13.1676 5.17045 15.2166 5.96591 16.8182C6.03693 16.9638 6.11506 17.1058 6.19318 17.2443C3.85298 16.0085 2.18395 13.6506 1.875 10.9091ZM6.42045 10.9091H9.09091V17.8977C8.57244 17.5675 8.04332 16.9496 7.58523 16.0227C6.94602 14.7372 6.52699 12.919 6.42045 10.9091ZM10.9091 10.9091H13.5795C13.473 12.919 13.054 14.7372 12.4148 16.0227C11.9567 16.9496 11.4276 17.5675 10.9091 17.8977V10.9091ZM15.4261 10.9091H18.125C17.8161 13.6506 16.147 16.0085 13.8068 17.2443C13.8849 17.1058 13.9631 16.9638 14.0341 16.8182C14.8295 15.2166 15.3196 13.1676 15.4261 10.9091Z" fill="black" fill-opacity="0.2"/>
<path d="M10 0C4.50284 0 0 4.50284 0 10C0 15.4972 4.50284 20 10 20C15.4972 20 20 15.4972 20 10C20 4.50284 15.4972 0 10 0ZM9.09091 2.10227V9.09091H6.42045C6.52699 7.08097 6.94602 5.26278 7.58523 3.97727C8.04332 3.05043 8.57244 2.43253 9.09091 2.10227ZM10.9091 2.10227C11.4276 2.43253 11.9567 3.05043 12.4148 3.97727C13.054 5.26278 13.473 7.08097 13.5795 9.09091H10.9091V2.10227ZM6.19318 2.75568C6.11506 2.89418 6.03693 3.03622 5.96591 3.18182C5.17045 4.78338 4.6804 6.83239 4.57386 9.09091H1.875C2.18395 6.34943 3.85298 3.99148 6.19318 2.75568ZM13.8068 2.75568C16.147 3.99148 17.8161 6.34943 18.125 9.09091H15.4261C15.3196 6.83239 14.8295 4.78338 14.0341 3.18182C13.9631 3.03622 13.8849 2.89418 13.8068 2.75568ZM1.875 10.9091H4.57386C4.6804 13.1676 5.17045 15.2166 5.96591 16.8182C6.03693 16.9638 6.11506 17.1058 6.19318 17.2443C3.85298 16.0085 2.18395 13.6506 1.875 10.9091ZM6.42045 10.9091H9.09091V17.8977C8.57244 17.5675 8.04332 16.9496 7.58523 16.0227C6.94602 14.7372 6.52699 12.919 6.42045 10.9091ZM10.9091 10.9091H13.5795C13.473 12.919 13.054 14.7372 12.4148 16.0227C11.9567 16.9496 11.4276 17.5675 10.9091 17.8977V10.9091ZM15.4261 10.9091H18.125C17.8161 13.6506 16.147 16.0085 13.8068 17.2443C13.8849 17.1058 13.9631 16.9638 14.0341 16.8182C14.8295 15.2166 15.3196 13.1676 15.4261 10.9091Z" fill="black" fill-opacity="0.2"/>
<defs>
<radialGradient id="paint0_radial_250_1284" cx="0" cy="0" r="1" gradientUnits="userSpaceOnUse" gradientTransform="translate(5.27778 4.16667) rotate(51.0441) scale(16.7889 16.7889)">
<stop stop-color="white" stop-opacity="0.59"/>
<stop offset="0.697917" stop-color="white" stop-opacity="0"/>
<stop offset="1" stop-color="white" stop-opacity="0"/>
</radialGradient>
<radialGradient id="paint1_radial_250_1284" cx="0" cy="0" r="1" gradientTransform="matrix(-1.09589 -17.0833 -18.4173 10.9306 17.2603 17.5)" gradientUnits="userSpaceOnUse">
<stop stop-opacity="0.23"/>
<stop offset="0.861815" stop-opacity="0"/>
</radialGradient>
</defs>
</svg>
