<svg width="34" height="33" viewBox="0 0 34 33" fill="none" xmlns="http://www.w3.org/2000/svg">
<path d="M16.9997 2.75C9.17543 2.75 2.83301 8.90588 2.83301 16.5C2.83301 24.0941 9.17543 30.25 16.9997 30.25C24.8239 30.25 31.1663 24.0941 31.1663 16.5C31.1663 8.90588 24.8239 2.75 16.9997 2.75Z" fill="white"/>
<path d="M18.9176 20.1442H22.5839L23.1598 16.5293H18.9176V14.5534C18.9176 13.0519 19.4234 11.7203 20.8705 11.7203H23.1959V8.56601C22.7872 8.51238 21.9231 8.39551 20.2904 8.39551C16.8804 8.39551 14.8815 10.1431 14.8815 14.1251V16.53H11.376V20.1449H14.8808V30.0806C15.575 30.181 16.2784 30.2498 17.0001 30.2498C17.6525 30.2498 18.2893 30.192 18.9176 30.1095V20.1442Z" fill="#202938"/>
</svg>
