<svg width="24" height="24" viewBox="0 0 24 24" fill="none" xmlns="http://www.w3.org/2000/svg">
<path d="M4.78758 2.38917C4.57568 2.39248 4.37375 2.47973 4.22611 2.63177C4.07847 2.7838 3.99718 2.9882 4.00008 3.20011V20.8001C3.99858 20.9061 4.01817 21.0114 4.0577 21.1097C4.09723 21.2081 4.15592 21.2977 4.23035 21.3732C4.30479 21.4486 4.39349 21.5086 4.49129 21.5495C4.5891 21.5904 4.69406 21.6115 4.80008 21.6115C4.9061 21.6115 5.01106 21.5904 5.10887 21.5495C5.20667 21.5086 5.29537 21.4486 5.36981 21.3732C5.44424 21.2977 5.50293 21.2081 5.54246 21.1097C5.58199 21.0114 5.60158 20.9061 5.60008 20.8001V12.0001H12.8001C13.2417 12.0001 13.6001 11.6417 13.6001 11.2001V4.00011C13.6001 3.11611 12.8841 2.40011 12.0001 2.40011H4.92352C4.8786 2.3926 4.83312 2.38894 4.78758 2.38917ZM15.2001 5.60011V12.0001C15.2001 12.8841 14.4841 13.6001 13.6001 13.6001H9.60008V15.2001C9.60008 16.0841 10.3161 16.8001 11.2001 16.8001H21.6001L20.0001 11.2001L21.6001 5.60011H15.2001Z" fill="#8C6925"/>
</svg>
