<svg width="23" height="23" viewBox="0 0 23 23" fill="none" xmlns="http://www.w3.org/2000/svg">
<path d="M3.26465 1.91675L1.91699 3.2644L3.68392 5.06128L1.97689 6.76831L3.35449 8.14592L5.06152 6.43888L7.72689 9.10425C7.70817 9.26148 7.66699 9.42244 7.66699 9.58342C7.66699 11.3578 8.89486 12.8403 10.542 13.267V14.3751H9.58366V15.3334H10.542V17.3699L9.0446 15.8725L7.66699 17.2501L11.5303 21.0834L15.3337 17.2501L13.986 15.8725L12.4587 17.3699V15.3334H13.417V14.3751H12.4587V13.267C14.1058 12.8403 15.3337 11.3578 15.3337 9.58342C15.3337 9.42244 15.2925 9.26148 15.2738 9.10425L19.167 5.21102V7.66675H21.0837V1.91675H15.3337V3.83341H17.7894L14.4352 7.18758C13.7314 6.33032 12.687 5.75008 11.5003 5.75008C10.3136 5.75008 9.26921 6.33032 8.56543 7.18758L6.43913 5.06128L8.14616 3.35425L6.76855 1.97664L5.06152 3.68368L3.26465 1.91675ZM11.5003 7.66675C12.571 7.66675 13.417 8.51278 13.417 9.58342C13.417 10.6541 12.571 11.5001 11.5003 11.5001C10.4297 11.5001 9.58366 10.6541 9.58366 9.58342C9.58366 8.51278 10.4297 7.66675 11.5003 7.66675Z" fill="#8C6925"/>
</svg>
