<svg width="39" height="39" viewBox="0 0 39 39" fill="none" xmlns="http://www.w3.org/2000/svg">
<path d="M9.35957 0C8.50645 0 7.79957 0.706875 7.79957 1.56V3.12H3.11957C2.21465 3.12 1.55957 3.77508 1.55957 4.68V10.14H37.4396V4.68C37.4396 3.77508 36.7845 3.12 35.8796 3.12H31.1996V1.56C31.1996 0.706875 30.4927 0 29.6396 0H28.0796C27.2264 0 26.5196 0.706875 26.5196 1.56V3.12H12.4796V1.56C12.4796 0.706875 11.7727 0 10.9196 0H9.35957ZM9.35957 1.56H10.9196V6.24H9.35957V1.56ZM28.0796 1.56H29.6396V6.24H28.0796V1.56ZM1.55957 11.7V35.88C1.55957 36.7819 2.21465 37.44 3.11957 37.44H35.8796C36.7814 37.44 37.4396 36.7819 37.4396 35.88V11.7H1.55957ZM23.5458 23.4H29.4933C30.0052 23.4 30.4196 23.8144 30.4196 24.3262V30.2737C30.4196 30.7856 30.0052 31.2 29.4933 31.2H23.5458C23.0339 31.2 22.6196 30.7856 22.6196 30.2737V24.3262C22.6196 23.8144 23.0339 23.4 23.5458 23.4Z" fill="#8B6826"/>
</svg>
