<svg width="46" height="46" viewBox="0 0 46 46" fill="none" xmlns="http://www.w3.org/2000/svg">
<path d="M23.0003 3.83325C22.7469 3.83328 22.4959 3.88359 22.262 3.98126C22.0281 4.07893 21.8159 4.22203 21.6377 4.40226L2.30632 21.2704C2.18558 21.3595 2.08745 21.4757 2.01983 21.6096C1.95221 21.7436 1.91699 21.8915 1.91699 22.0416C1.91699 22.2958 2.01796 22.5395 2.19768 22.7192C2.3774 22.899 2.62116 22.9999 2.87533 22.9999H7.66699V38.3333C7.66699 39.3913 8.52566 40.2499 9.58366 40.2499H15.3337C16.3917 40.2499 17.2503 39.3913 17.2503 38.3333V26.8333H28.7503V38.3333C28.7503 39.3913 29.609 40.2499 30.667 40.2499H36.417C37.475 40.2499 38.3337 39.3913 38.3337 38.3333V22.9999H43.1253C43.3795 22.9999 43.6232 22.899 43.803 22.7192C43.9827 22.5395 44.0837 22.2958 44.0837 22.0416C44.0837 21.8915 44.0484 21.7436 43.9808 21.6096C43.9132 21.4757 43.8151 21.3595 43.6943 21.2704L36.417 14.9215V9.58325C36.417 8.52525 35.5583 7.66659 34.5003 7.66659C33.4423 7.66659 32.5837 8.52525 32.5837 9.58325V11.5748L24.3742 4.41349C24.3705 4.40973 24.3667 4.40599 24.363 4.40226C24.1847 4.22203 23.9725 4.07893 23.7386 3.98126C23.5047 3.88359 23.2538 3.83328 23.0003 3.83325Z" fill="#8C6925"/>
</svg>
