<svg width="25" height="24" viewBox="0 0 25 24" fill="none" xmlns="http://www.w3.org/2000/svg">
<path d="M23.4961 10.927L13.618 1.444C13.0013 0.852 12.0003 0.852 11.3836 1.444L1.50547 10.927C0.888802 11.519 0.888802 12.48 1.50547 13.072L11.3836 22.555C12.0003 23.147 13.0013 23.147 13.618 22.555L23.4961 13.072C24.1128 12.48 24.1128 11.52 23.4961 10.927ZM13.0211 17H11.9794C11.6919 17 11.4586 16.776 11.4586 16.5V15.5C11.4586 15.224 11.6919 15 11.9794 15H13.0211C13.3086 15 13.5419 15.224 13.5419 15.5V16.5C13.5419 16.776 13.3086 17 13.0211 17ZM12.5003 13C11.9253 13 11.4586 12.552 11.4586 12V8C11.4586 7.448 11.9253 7 12.5003 7C13.0753 7 13.5419 7.448 13.5419 8V12C13.5419 12.552 13.0753 13 12.5003 13Z" fill="#4788C7"/>
</svg>
