<svg width="49" height="49" viewBox="0 0 49 49" fill="none" xmlns="http://www.w3.org/2000/svg">
<path d="M43.3704 8.69248C41.0572 6.37825 37.9804 5.10425 34.7087 5.10425C31.4369 5.10425 28.3601 6.37825 26.0469 8.69248C25.4609 9.27742 24.9383 9.97158 24.5003 10.6351C24.0624 9.97158 23.5397 9.27742 22.9538 8.69248C20.6406 6.37825 17.5638 5.10425 14.292 5.10425C11.0202 5.10425 7.94343 6.37825 5.63022 8.69248C3.31701 11.0067 2.04199 14.0825 2.04199 17.3542C2.04199 20.626 3.31599 23.7028 5.63022 26.016C9.77582 30.1616 23.2968 43.3294 23.4315 43.461C23.7296 43.751 24.1144 43.8959 24.5003 43.8959C24.8862 43.8959 25.2711 43.751 25.5691 43.461C25.7049 43.3294 39.2258 30.1616 43.3704 26.016C45.6847 23.7028 46.9587 20.626 46.9587 17.3542C46.9587 14.0825 45.6847 11.0057 43.3704 8.69248ZM28.553 29.3572C28.6296 29.6624 28.5602 29.985 28.3672 30.2321C28.1743 30.4801 27.8772 30.6251 27.5628 30.6251H21.4378C21.1234 30.6251 20.8263 30.4801 20.6334 30.2321C20.4405 29.985 20.3711 29.6614 20.4476 29.3572L21.69 24.3868C20.909 23.6426 20.417 22.5993 20.417 21.4376C20.417 19.1856 22.2484 17.3542 24.5003 17.3542C26.7523 17.3542 28.5837 19.1856 28.5837 21.4376C28.5837 22.5993 28.0916 23.6426 27.3107 24.3857L28.553 29.3572Z" fill="#8B6826"/>
</svg>
