<svg width="34" height="34" viewBox="0 0 34 34" fill="none" xmlns="http://www.w3.org/2000/svg">
<path d="M17.0004 1.36035C8.36435 1.36035 1.36035 8.36435 1.36035 17.0004C1.36035 25.6364 8.36435 32.6404 17.0004 32.6404C25.6364 32.6404 32.6404 25.6364 32.6404 17.0004C32.6404 8.36435 25.6364 1.36035 17.0004 1.36035ZM12.9204 23.8004C12.9204 24.1404 12.5804 24.4804 12.2404 24.4804H9.52035C9.18035 24.4804 8.84035 24.1404 8.84035 23.8004V13.6004C8.84035 13.2604 9.18035 12.9204 9.52035 12.9204H12.2404C12.5804 12.9204 12.9204 13.2604 12.9204 13.6004V23.8004ZM10.8804 12.2404C9.79235 12.2404 8.84035 11.2884 8.84035 10.2004C8.84035 9.11235 9.79235 8.16035 10.8804 8.16035C11.9684 8.16035 12.9204 9.11235 12.9204 10.2004C12.9204 11.2884 11.9684 12.2404 10.8804 12.2404ZM25.8404 23.8004C25.8404 24.1404 25.5004 24.4804 25.1604 24.4804H22.4404C22.1004 24.4804 21.7604 24.1404 21.7604 23.8004V18.7004C21.7604 17.7484 21.0124 17.0004 20.0604 17.0004C19.1084 17.0004 18.3604 17.7484 18.3604 18.7004V23.8004C18.3604 24.1404 18.0204 24.4804 17.6804 24.4804H14.9604C14.6204 24.4804 14.2804 24.1404 14.2804 23.8004V13.6004C14.2804 13.2604 14.6204 12.9204 14.9604 12.9204H17.6804C18.0204 12.9204 18.3604 13.1924 18.3604 13.6004C19.1084 13.1924 19.8564 12.9204 20.7404 12.9204C23.5284 12.9204 25.8404 15.2324 25.8404 18.0204V23.8004Z" fill="white"/>
</svg>
