<svg width="19" height="31" viewBox="0 0 19 31" fill="none" xmlns="http://www.w3.org/2000/svg">
<path d="M9.5 0C4.25329 0 0 4.83896 0 10.8081C0 16.9317 5.97686 25.9704 8.44957 29.446C8.99243 30.2088 10.0076 30.2088 10.5504 29.446C13.0231 25.9704 19 16.9317 19 10.8081C19 4.83896 14.7467 0 9.5 0ZM9.5 14.6682C7.62579 14.6682 6.10714 12.9404 6.10714 10.8081C6.10714 8.67585 7.62579 6.94809 9.5 6.94809C11.3742 6.94809 12.8929 8.67585 12.8929 10.8081C12.8929 12.9404 11.3742 14.6682 9.5 14.6682Z" fill="white"/>
</svg>
