<svg width="25" height="25" viewBox="0 0 25 25" fill="none" xmlns="http://www.w3.org/2000/svg">
<path d="M12.5 0.5C8.08984 0.5 4.5 4.08984 4.5 8.5C4.5 15.5566 11.8145 23.9727 12.125 24.3281C12.2207 24.4375 12.3555 24.5 12.5 24.5C12.6543 24.4902 12.7793 24.4375 12.875 24.3281C13.1855 23.9668 20.5 15.4062 20.5 8.5C20.5 4.08984 16.9102 0.5 12.5 0.5ZM12.5 6C14.1562 6 15.5 7.34375 15.5 9C15.5 10.6562 14.1562 12 12.5 12C10.8438 12 9.5 10.6562 9.5 9C9.5 7.34375 10.8438 6 12.5 6Z" fill="#937333"/>
</svg>
