<svg width="19" height="19" viewBox="0 0 19 19" fill="none" xmlns="http://www.w3.org/2000/svg">
<path d="M7.64198 2.41895C6.4123 2.41895 5.39942 3.43182 5.39942 4.6615V6.5303C5.39802 6.62935 5.41632 6.7277 5.45326 6.81962C5.4902 6.91154 5.54504 6.9952 5.61459 7.06575C5.68414 7.13629 5.76702 7.19231 5.85841 7.23054C5.9498 7.26877 6.04788 7.28846 6.14694 7.28846C6.24601 7.28846 6.34408 7.26877 6.43547 7.23054C6.52686 7.19231 6.60974 7.13629 6.67929 7.06575C6.74885 6.9952 6.80369 6.91154 6.84062 6.81962C6.87756 6.7277 6.89586 6.62935 6.89446 6.5303V4.6615C6.89446 4.23991 7.22039 3.91398 7.64198 3.91398H13.9959C14.4175 3.91398 14.7434 4.23991 14.7434 4.6615V13.6317C14.7434 14.0533 14.4175 14.3792 13.9959 14.3792H7.64198C7.22039 14.3792 6.89446 14.0533 6.89446 13.6317V11.7629C6.89586 11.6639 6.87756 11.5655 6.84062 11.4736C6.80369 11.3817 6.74885 11.298 6.67929 11.2275C6.60974 11.1569 6.52686 11.1009 6.43547 11.0627C6.34408 11.0245 6.24601 11.0048 6.14694 11.0048C6.04788 11.0048 5.9498 11.0245 5.85841 11.0627C5.76702 11.1009 5.68414 11.1569 5.61459 11.2275C5.54504 11.298 5.4902 11.3817 5.45326 11.4736C5.41632 11.5655 5.39802 11.6639 5.39942 11.7629V13.6317C5.39942 14.8614 6.4123 15.8743 7.64198 15.8743H13.9959C15.2256 15.8743 16.2384 14.8614 16.2384 13.6317V4.6615C16.2384 3.43182 15.2256 2.41895 13.9959 2.41895H7.64198ZM9.8765 6.14924C9.72786 6.14942 9.58264 6.19391 9.45941 6.27703C9.33617 6.36014 9.24051 6.47811 9.18465 6.61586C9.12878 6.7536 9.11524 6.90488 9.14577 7.05035C9.17629 7.19583 9.24949 7.3289 9.35601 7.43258L10.3225 8.39909H3.53063C3.43157 8.39769 3.33323 8.41599 3.2413 8.45293C3.14938 8.48987 3.06572 8.54471 2.99518 8.61426C2.92463 8.68381 2.86862 8.76669 2.83038 8.85808C2.79215 8.94947 2.77246 9.04755 2.77246 9.14661C2.77246 9.24568 2.79215 9.34376 2.83038 9.43515C2.86862 9.52653 2.92463 9.60941 2.99518 9.67897C3.06572 9.74852 3.14938 9.80336 3.2413 9.8403C3.33323 9.87723 3.43157 9.89553 3.53063 9.89413H10.3225L9.35601 10.8607C9.28427 10.9295 9.22699 11.012 9.18754 11.1033C9.14808 11.1946 9.12723 11.2929 9.12622 11.3923C9.12521 11.4918 9.14405 11.5904 9.18164 11.6825C9.21923 11.7746 9.27482 11.8582 9.34515 11.9286C9.41547 11.9989 9.49912 12.0545 9.5912 12.0921C9.68328 12.1297 9.78193 12.1485 9.88138 12.1475C9.98083 12.1465 10.0791 12.1256 10.1704 12.0862C10.2617 12.0467 10.3442 11.9894 10.4131 11.9177L12.6556 9.67513C12.7957 9.53494 12.8745 9.34483 12.8745 9.14661C12.8745 8.94839 12.7957 8.75829 12.6556 8.61809L10.4131 6.37554C10.3433 6.30384 10.2599 6.24687 10.1677 6.208C10.0756 6.16913 9.97653 6.14915 9.8765 6.14924Z" fill="black"/>
</svg>
