<svg width="151" height="40" viewBox="0 0 151 40" fill="none" xmlns="http://www.w3.org/2000/svg">
<path d="M86.602 1.1282L86.9496 4.43451L85.6057 3.71713C83.9285 3.02107 81.1548 2.72631 79.4095 3.22349C78.0477 3.61414 77.1733 4.87487 77.7969 6.24925C79.8288 10.7204 90.1391 8.45109 88.4798 16.534C87.2004 22.7701 79.0727 21.893 74.3279 21.0406L73.8691 17.0631C76.8902 18.6861 82.8176 20.9128 84.9535 16.9175C86.9568 13.1708 80.9254 12.2297 78.6319 11.175C76.754 10.312 74.7006 8.78847 74.4354 6.58308C73.7043 0.382413 82.3876 -0.224869 86.602 1.1282Z" fill="#8C6925"/>
<path d="M150.099 13.9594H138.53C138.276 13.9594 138.462 15.0887 138.502 15.316C139.423 20.2985 146.164 20.0144 149.425 17.5036C149.167 18.7146 148.998 19.1799 148.522 21.1473C147.726 21.2894 146.92 21.4847 146.114 21.5877C141.598 22.1523 137.04 21.5983 135.509 16.733C133.506 10.3583 138.702 4.66193 145.293 6.70751C148.669 7.75516 149.898 10.685 150.099 13.9629V13.9594ZM146.411 11.857C146.149 7.6131 139.089 7.72675 138.81 11.857H146.411Z" fill="#8C6925"/>
<path d="M48.5042 21.2722H45.2646V19.39C44.7127 19.8162 44.2826 20.3808 43.6913 20.7644C40.6129 22.7602 34.5959 21.8617 34.2017 17.5611C33.6678 11.6907 40.6631 11.6836 44.8166 11.8611C44.9277 6.72943 38.28 8.55127 35.3163 9.75518L36.3412 6.67261C38.8534 6.33878 41.645 6.04757 44.1465 6.59448C46.1354 7.03129 47.2392 8.04343 47.5796 10.0606C48.2032 13.7469 46.9417 17.7528 48.5042 21.2722ZM44.7987 13.8676C42.4012 13.1645 36.8608 13.7895 37.2156 17.2308C37.3733 18.7508 39.4482 19.6741 40.8316 19.6031C44.082 19.4362 44.9169 16.6271 44.8023 13.8676H44.7987Z" fill="#8C6925"/>
<path d="M106.707 6.34909C112.204 5.7347 116.928 10.3408 115.62 15.8454C114.143 22.0638 105.711 23.8111 101.597 18.999C97.5507 14.2686 100.579 7.0345 106.711 6.35264L106.707 6.34909ZM106.929 8.67167C101.177 9.44587 101.543 19.6986 108.011 19.4998C114.548 19.2973 114.315 7.68085 106.929 8.67167Z" fill="#8C6925"/>
<path d="M66.2753 21.2723H61.0216C61.1722 21.1054 61.3083 20.9278 61.4338 20.7432C61.9104 20.0258 62.1003 19.1664 62.0824 18.3069C62.0287 15.9808 62.4264 13.296 62.1326 11.1474C62 10.1921 60.9034 9.00595 59.9967 8.72184C57.8823 8.06484 55.7608 9.27585 55.2662 11.4102C54.9401 12.813 54.9365 17.4866 55.1014 19.003C55.191 19.8092 55.7214 20.6544 56.2195 21.2723H50.9658C51.5034 20.6402 52.0087 19.8589 52.0875 19.0066C52.3885 15.7358 51.8546 12.021 52.0839 8.70053C52.0588 8.12522 51.6324 7.73457 51.3027 7.31906L55.1014 6.43122C55.1229 6.81477 55.0727 7.21252 55.1014 7.59606C55.1086 7.71681 55.0405 7.9654 55.2662 7.86952C55.4096 7.80914 55.8468 7.36523 56.0726 7.22672C58.6027 5.67478 62.9497 6.02992 64.5802 8.72184C65.8381 10.7923 64.8203 16.4602 65.168 19.1024C65.2683 19.8553 65.813 20.6863 66.2753 21.2723Z" fill="#8C6925"/>
<path d="M133.108 21.2717H127.854C128.299 20.6644 128.861 19.8618 128.962 19.1018C129.173 17.4966 129.134 13.132 128.958 11.4842C128.532 7.46049 122.464 7.56348 121.963 11.9459C121.787 13.4907 121.733 17.7133 121.941 19.2155C122.034 19.8796 122.626 20.7674 123.049 21.2753H117.795C118.358 20.5934 118.813 19.7908 118.917 18.8994C118.716 15.7351 119.171 12.2797 118.909 9.15094C118.841 8.34478 118.637 7.93638 118.128 7.32199L121.927 6.43415C121.948 6.8177 121.898 7.21545 121.927 7.599C121.938 7.76236 121.841 7.91862 122.092 7.87245C124.41 5.53211 129.141 5.83753 131.148 8.42291C132.757 10.4969 131.632 16.4703 131.993 19.2155C132.09 19.9542 132.631 20.7141 133.101 21.2753L133.108 21.2717Z" fill="#8C6925"/>
<path d="M15.8676 0.780273L16.0898 3.9907C16.0253 4.06172 14.6599 3.2165 14.3588 3.2165H9.61047V19.3325C9.61047 19.7907 10.3917 20.9058 10.7286 21.2716H5.47489C5.68633 20.9271 6.48191 19.7765 6.48191 19.4426V3.2165H1.72994C1.42533 3.2165 0.0599461 4.06172 -0.000976562 3.9907L0.242714 0.780273H15.8676Z" fill="#8C6925"/>
<path d="M91.6442 3.21658L94.7727 2.44238V6.65074H99.4674L98.0697 9.08697H94.7727C94.7727 9.08697 94.2567 15.9979 94.7727 18.2246C94.8516 18.5691 95.1885 18.9491 95.2565 19.0165C96.1023 19.8334 98.2238 18.9278 99.2416 18.7218L98.5464 21.4634C98.3206 21.7404 95.1204 21.7688 94.6043 21.712C92.9737 21.538 91.6442 20.0784 91.6442 18.4448V9.08697H89.2969L90.4687 6.76083L91.6442 6.65074V3.21658Z" fill="#8C6925"/>
<path d="M28.1636 2.44238V6.65074H32.8582L31.629 9.08696H28.1636V18.0044C28.1457 18.388 28.4324 18.8319 28.6617 18.9526C29.8336 19.5706 31.6254 18.8923 32.7471 18.7253C32.5178 19.4889 32.3816 20.5791 32.0483 21.3001C31.8799 21.6694 31.0019 21.6943 30.5718 21.7227C28.6438 21.847 26.2643 21.9038 25.4257 19.8334C25.3647 19.6807 25.1461 18.9952 25.1461 18.8923V9.09052H22.7988L23.9349 6.67204L25.1461 6.65429V3.21658L28.1636 2.44238Z" fill="#8C6925"/>
<path d="M21.1217 6.31689V19.4427C21.1217 19.9008 21.9029 21.0159 22.2398 21.3817H16.875C17.4054 20.7638 17.9214 20.0642 17.9967 19.2261C18.3085 15.7741 17.9931 11.96 17.9967 8.36602L17.323 7.09464L21.1217 6.31689Z" fill="#8C6925"/>
<path d="M59.2341 39.7671V31.5705H60.689C60.6747 31.9115 60.6604 32.2773 60.689 32.6253C60.7034 32.8029 60.6854 32.8632 60.8001 32.8987C61.8931 30.775 65.5628 30.704 66.2294 33.2255C66.4838 34.1914 66.2796 34.8342 66.2724 35.7185C66.2617 37.068 66.2903 38.4176 66.276 39.7671H64.9321C64.7099 37.9665 65.7134 33.9286 64.2655 32.6182C63.2406 31.6877 61.3628 32.2773 60.8754 33.5877C60.5063 34.5821 60.6389 37.8316 60.6783 39.0532C60.6854 39.3018 60.793 39.522 60.7965 39.7671H59.2305H59.2341Z" fill="#8C6925"/>
<path d="M116.455 39.7674V31.5709H117.91C117.924 31.9189 117.892 32.274 117.91 32.6256C117.917 32.7499 117.838 32.931 118.021 32.8991C119.125 30.8073 122.651 30.683 123.422 33.1441C123.773 34.2699 123.508 35.0015 123.497 36.0527C123.483 37.2921 123.515 38.5315 123.501 39.7674H122.157C121.985 38.0059 122.909 33.9716 121.548 32.6753C120.558 31.7342 118.792 32.2101 118.225 33.3785C117.72 34.4226 117.86 37.5407 117.906 38.8298C117.917 39.1459 118.064 39.4442 118.021 39.7674H116.455Z" fill="#8C6925"/>
<path d="M82.3695 31.5708H83.8209C83.7599 32.1355 83.742 32.7214 83.7134 33.2932C83.6488 34.6853 83.1794 37.5477 84.2652 38.6096C84.9999 39.327 86.5409 39.2985 87.2755 38.5954C87.6769 38.2118 88.0675 37.1464 88.0675 36.6137V31.5744H89.4078V39.7709H88.0639L88.0102 38.4427C87.0713 40.1402 84.2832 40.5806 82.9787 39.1068C82.9787 39.1068 82.9751 39.1032 82.9715 39.0997C82.5773 38.6557 82.3623 38.0804 82.3623 37.4874V31.5744L82.3695 31.5708Z" fill="#8C6925"/>
<path d="M148.407 35.5446L142.401 35.5731C142.042 35.7968 142.558 37.5192 142.773 37.885C143.931 39.8773 146.64 39.6571 148.084 38.1016C148.41 39.6287 145.655 40.0655 144.579 39.9696C141.279 39.6784 140.143 36.5781 141.153 33.7228C142.583 29.6849 149.41 30.9705 148.41 35.5411L148.407 35.5446ZM147.081 34.8947C147.088 33.0658 146.31 31.4428 144.167 31.9507C143.139 32.1957 142.44 33.7761 142.386 34.7278C142.372 34.9693 142.393 34.8663 142.555 34.8912C144.046 35.1327 145.586 34.9764 147.081 34.8912V34.8947Z" fill="#8C6925"/>
<path d="M37.8871 35.5586C35.8444 35.6296 34.927 35.5586 31.7877 35.6616C31.4795 39.1703 35.1528 40.5092 37.5503 38.1049C37.88 39.5397 35.289 40.0404 34.2497 39.9907C28.5767 39.7173 28.9458 30.6187 35.0238 31.3609C36.1562 31.4994 37.8871 32.7459 37.8871 33.9499V35.5551V35.5586ZM36.5468 34.8945C36.7009 30.6897 31.9741 31.0022 31.8522 34.8945C33.8447 34.9016 34.8733 34.8732 36.5468 34.8945Z" fill="#8C6925"/>
<path d="M111.315 39.3232C111.68 39.618 109.917 40.0938 109.301 39.4937C109.19 39.3871 108.953 38.7514 108.914 38.7692C107.609 40.52 103.775 40.4738 103.818 37.8281C103.864 35.1042 107.29 35.7718 108.914 34.7846C109.555 31.9222 106.255 31.0414 104.775 33.2326C104.47 33.325 104.585 32.4584 104.714 32.2844C105.219 31.5919 107.09 31.2723 107.907 31.3504C110.272 31.5848 110.354 33.5096 110.315 35.3954C110.293 36.4821 109.552 39.5505 111.315 39.3232ZM108.967 35.4451C107.624 35.8109 105.305 35.747 105.273 37.6043C105.24 39.4617 107.33 39.7707 108.527 38.6058C108.598 38.5348 108.971 38.0838 108.971 38.0483V35.4451H108.967Z" fill="#8C6925"/>
<path d="M3.01562 39.7676V27.8066C3.3059 27.7817 3.56751 27.7462 3.85421 27.732C4.53152 27.7001 4.87556 27.3556 4.69996 28.421C4.64979 28.7299 4.58886 29.0105 4.57811 29.2982C4.4706 32.4979 4.65695 35.7226 4.59961 38.9223C4.59961 38.9223 4.55303 39.1212 4.86481 39.1035C6.02234 39.0395 9.5021 38.8833 9.5021 38.8833C9.5021 39.178 9.5021 39.3378 9.5021 39.7676H3.01562Z" fill="#8C6925"/>
<path d="M51.4102 39.7677V27.8068C51.9585 27.8032 52.3455 27.8032 52.9189 27.8032L53.0873 39.7677H51.4102Z" fill="#8C6925"/>
<path d="M22.9087 39.7674L23.1345 32.235H21.9053V31.5709H23.1345C23.1166 29.8911 24.0304 27.0252 25.9226 26.6381C27.2736 26.3611 26.5676 27.0997 26.711 28.0266C23.8691 26.9896 24.0053 29.6318 24.3637 31.5709H26.1519V32.235H24.3637L24.4748 39.7674H22.9087Z" fill="#8C6925"/>
<path d="M76.5574 31.7946L76.2206 33.0091C75.7654 32.9381 75.6759 32.3699 75.2566 32.1391C73.884 31.3862 72.3 32.7854 73.0454 34.1101C73.7299 35.3246 76.7259 34.8771 76.9947 36.731C77.4462 39.8348 73.9557 40.5593 71.6406 39.5436L71.9775 38.2154L73.1064 39.1459C74.4323 39.9343 76.346 38.947 75.8407 37.324C75.4573 36.0882 72.0599 36.3794 71.7625 34.4972C71.3038 31.585 74.3356 30.6865 76.561 31.791L76.5574 31.7946Z" fill="#8C6925"/>
<path d="M135.681 33.2327C135.488 32.7 134.685 32.0714 134.122 31.9542C131.169 31.3363 130.209 33.9643 130.431 36.3899C130.729 39.6323 134.065 40.1934 136.187 38.1087C136.391 39.1528 135.269 39.579 134.431 39.7992C130.904 40.7332 128.213 38.0413 129.009 34.5396C129.646 31.7447 132.71 30.7752 135.258 31.6062C136.366 31.9684 136.326 32.3271 135.685 33.2363L135.681 33.2327Z" fill="#8C6925"/>
<path d="M99.5797 31.3508L99.465 32.9027C98.3254 32.228 97.3112 32.7891 96.8919 33.9504C96.4726 35.1117 96.6267 37.8782 96.6661 39.1637C96.6733 39.3768 96.7522 39.5615 96.7844 39.7675H95.333V31.571H96.7844C96.7091 32.0255 96.6626 32.4339 96.6733 32.956C96.6841 33.478 97.1464 32.5405 97.2969 32.3558C97.8882 31.6242 98.6013 31.2158 99.5797 31.3508Z" fill="#8C6925"/>
<path d="M16.653 31.5708H15.0869V39.7673H16.653V31.5708Z" fill="#8C6925"/>
<path d="M21.1217 2.1084H17.9932V4.87845H21.1217V2.1084Z" fill="#8C6925"/>
<path d="M15.6171 27.6035C16.642 27.3833 17.1903 28.5482 16.3768 29.1341C15.2336 29.9581 14.3592 27.8734 15.6171 27.6035Z" fill="#8C6925"/>
</svg>
