<svg width="25" height="25" viewBox="0 0 25 25" fill="none" xmlns="http://www.w3.org/2000/svg">
<path d="M12.5 2.50171C8.965 2.50171 7.5 4.76921 7.5 7.50171C7.5 8.42171 7.93945 9.34578 7.93945 9.34578C7.76279 9.44745 7.47224 9.77017 7.54557 10.3435C7.68224 11.4127 8.14576 11.6849 8.44075 11.7074C8.55326 12.7049 9.625 13.9809 10 14.1667V15.8334C9.99817 15.8389 9.99375 15.8426 9.99186 15.8481C9.71628 15.8823 9.47041 16.0449 9.3457 16.2973L9.08529 16.8214C7.02858 17.9746 2.5 17.6887 2.5 22.5001H11.0872L12.0833 19.2367L11.1344 17.5001H12.4788H13.8656L12.9167 19.2367L13.9128 22.5001H22.5C22.5 17.6887 17.9714 17.9746 15.9147 16.8214L15.6543 16.2973C15.5296 16.0449 15.2837 15.8823 15.0081 15.8481C15.0063 15.8426 15.0018 15.8389 15 15.8334V14.1667C15.375 13.9809 16.4467 12.7049 16.5592 11.7074C16.8542 11.6849 17.3178 11.4127 17.4544 10.3435C17.5278 9.76934 17.2372 9.44745 17.0605 9.34578C17.0605 9.34578 17.5 8.51088 17.5 7.50171C17.5 5.47838 16.7058 3.75171 15 3.75171C15 3.75171 14.4075 2.50171 12.5 2.50171Z" fill="#8C6925"/>
</svg>
