<svg width="23" height="8" viewBox="0 0 23 8" fill="none" xmlns="http://www.w3.org/2000/svg">
<path d="M22.7157 7.42444L22.7887 1.66424C22.7916 1.44148 22.615 1.25808 22.3922 1.25301L22.2179 1.24742L22.1981 2.80898C22.1952 3.03398 22.0107 3.21393 21.7857 3.21108C21.6732 3.20965 21.5725 3.16336 21.4992 3.08817C21.4259 3.01297 21.3821 2.91115 21.3836 2.79865L21.4035 1.22584L19.9142 1.1867L19.8794 3.9318C19.8766 4.15681 19.692 4.33675 19.467 4.3339C19.3545 4.33248 19.2538 4.28619 19.1805 4.211C19.1072 4.1358 19.0634 4.03398 19.0649 3.92147L19.0998 1.16738L17.6105 1.12824L17.5899 2.75055C17.5871 2.97555 17.4025 3.1555 17.1775 3.15265C17.065 3.15122 16.9643 3.10493 16.891 3.02974C16.8177 2.95455 16.774 2.85272 16.7754 2.74022L16.7961 1.10666L15.3068 1.06752L15.2712 3.87337C15.2684 4.09838 15.0838 4.27832 14.8588 4.27547C14.7463 4.27404 14.6456 4.22776 14.5723 4.15257C14.499 4.07737 14.4553 3.97555 14.4567 3.86304L14.4924 1.04594L13.0031 1.00681L12.9818 2.69211C12.9789 2.91712 12.7943 3.09707 12.5693 3.09422C12.4568 3.09279 12.3562 3.0465 12.2828 2.97131C12.2095 2.89612 12.1658 2.79429 12.1672 2.68179L12.1887 0.987477L10.6994 0.94834L10.6631 3.81494C10.6602 4.03995 10.4757 4.21989 10.2507 4.21704C10.1381 4.21562 10.0375 4.16933 9.96415 4.09413C9.89084 4.01894 9.84712 3.91712 9.84855 3.80461L9.88505 0.926761L8.39575 0.887623L8.37361 2.63368C8.37075 2.85869 8.18619 3.03864 7.96118 3.03579C7.84867 3.03436 7.74799 2.98807 7.67468 2.91288C7.60137 2.83769 7.55765 2.73586 7.55908 2.62336L7.58136 0.866045L6.09207 0.826907L6.05492 3.75651C6.05206 3.98152 5.8675 4.16146 5.64249 4.15861C5.52998 4.15718 5.4293 4.1109 5.35599 4.0357C5.28268 3.96051 5.23896 3.85869 5.24039 3.74618L5.27768 0.805329L3.78836 0.768441L3.76545 2.57525C3.76259 2.80026 3.57802 2.98021 3.35302 2.97736C3.24051 2.97593 3.13983 2.92964 3.06652 2.85445C2.99321 2.77926 2.94949 2.67743 2.95092 2.56493L2.97397 0.746863L0.795155 0.688855C0.686041 0.686347 0.580855 0.728897 0.502272 0.80329C0.422549 0.878794 0.379595 0.982895 0.377087 1.09201L0.296732 7.42823C0.295362 7.53624 0.336802 7.64028 0.412334 7.71776C0.413445 7.71889 0.413445 7.71889 0.414556 7.72003C0.491228 7.7964 0.595299 7.8416 0.704471 7.83961L22.3089 7.82549C22.5317 7.82606 22.7129 7.6472 22.7157 7.42444Z" fill="#8C6925"/>
</svg>
