<svg width="17" height="25" viewBox="0 0 17 25" fill="none" xmlns="http://www.w3.org/2000/svg">
<path d="M8.5 0.472656C7.09104 0.472656 5.73978 1.11126 4.74349 2.24798C3.74721 3.3847 3.1875 4.92643 3.1875 6.534C3.1875 8.14156 3.74721 9.68329 4.74349 10.82C5.73978 11.9567 7.09104 12.5953 8.5 12.5953C9.90896 12.5953 11.2602 11.9567 12.2565 10.82C13.2528 9.68329 13.8125 8.14156 13.8125 6.534C13.8125 4.92643 13.2528 3.3847 12.2565 2.24798C11.2602 1.11126 9.90896 0.472656 8.5 0.472656ZM14.8862 15.0199H2.11384C0.948281 15.0199 0 16.1018 0 17.4317V18.3536C0 20.3611 1.00141 22.0971 2.81934 23.2409C4.33181 24.1937 6.3495 24.718 8.5 24.718C12.5938 24.718 17 22.7263 17 18.3536V17.4317C17 16.1018 16.0517 15.0199 14.8862 15.0199Z" fill="white"/>
</svg>
