<svg width="25" height="25" viewBox="0 0 25 25" fill="none" xmlns="http://www.w3.org/2000/svg">
<path d="M15 15.8335V14.1668C15.375 13.981 16.4475 12.7043 16.56 11.7068C16.855 11.6843 17.3183 11.4135 17.455 10.3443C17.5283 9.77014 17.2367 9.44764 17.06 9.34598C17.06 9.34598 17.5 8.51014 17.5 7.50098C17.5 5.47764 16.7058 3.75098 15 3.75098C15 3.75098 14.4075 2.50098 12.5 2.50098C8.965 2.50098 7.5 4.76848 7.5 7.50098C7.5 8.42098 7.94 9.34598 7.94 9.34598C7.76333 9.44764 7.47167 9.77098 7.545 10.3443C7.68167 11.4135 8.145 11.6843 8.44 11.7068C8.5525 12.7043 9.625 13.981 10 14.1668V15.8335C9.16667 18.3335 2.5 16.6668 2.5 22.5001H22.5C22.5 16.6668 15.8333 18.3335 15 15.8335Z" fill="#95763A"/>
</svg>
