<svg width="26" height="16" viewBox="0 0 26 16" fill="none" xmlns="http://www.w3.org/2000/svg">
<path d="M12.1875 0C11.5156 0 10.9688 0.552205 10.9688 1.23077V1.64103V2.46154H26V1.23077C26 0.552205 25.4532 0 24.7812 0H12.1875ZM5.9422 2.87179C5.26214 2.87179 4.61287 3.15885 4.15137 3.66346L0.372925 7.79487L0 14.988L4.34259 15.1018C6.23897 15.1514 8.07214 14.4124 9.41357 13.0577L9.89441 12.5721C10.3352 12.127 10.8631 11.7794 11.444 11.5513L16.5396 9.54968C17.2822 9.25799 17.6592 8.42119 17.3878 7.66426C17.1514 7.00621 16.4906 6.60469 15.8041 6.70192L9.75 7.79487V2.87179H5.9422ZM10.9688 3.69231V6.32452L15.6351 5.48237C15.7602 5.46473 15.8849 5.45673 16.008 5.45673C17.1345 5.45673 18.1493 6.17483 18.5328 7.24519C19.0256 8.61914 18.3291 10.1675 16.9808 10.6971L16.1056 11.0769H24.7812C25.4532 11.0769 26 10.5247 26 9.84615V4.10256L10.9688 3.69231ZM15.8057 11.2067L13.2864 12.2989L11.375 13.1282L10.4784 14.2604C10.4288 15.1724 10.684 16 11.7789 16L12.5914 14.359C12.7186 14.0139 12.8212 13.7135 12.9207 13.4207C12.8668 14.3396 13.1144 15.1795 14.2164 15.1795L15.0289 13.5385C15.4396 12.4242 15.7114 11.5284 15.8057 11.2067Z" fill="#8C6925"/>
</svg>
