<svg width="20" height="15" viewBox="0 0 20 15" fill="none" xmlns="http://www.w3.org/2000/svg">
<path d="M18.2609 0H1.73913C0.779552 0 0 0.840454 0 1.875V13.125C0 14.1595 0.779552 15 1.73913 15H18.2609C19.2204 15 20 14.1595 20 13.125V1.875C20 0.840454 19.2204 0 18.2609 0ZM2.6087 11.7188C2.71399 9.83093 4.96603 10.1056 5.30401 9.12781C5.33118 8.79272 5.30401 8.55835 5.30401 8.25256C5.16304 8.172 4.76902 7.7417 4.70788 7.26196C4.70788 7.26196 4.39029 7.099 4.3733 6.58264C4.36311 6.30981 4.54144 6.11572 4.54144 6.11572C4.21026 4.7406 4.35292 3.31421 6.05978 3.28125C6.48607 3.28125 6.80707 3.50281 6.93444 3.74634C8.1216 3.74634 7.8142 5.53162 7.63417 6.11572C7.70041 6.18713 7.78193 6.38489 7.78193 6.65222C7.78193 7.03491 7.44565 7.26196 7.44565 7.26196C7.38281 7.74902 7.06352 8.15186 6.8699 8.25256C6.8699 8.55835 6.84103 8.79272 6.8699 9.12781C7.20788 10.1056 9.45992 9.83093 9.56522 11.7188H2.6087ZM16.9565 10.3125H11.7391C11.498 10.3125 11.3043 10.1038 11.3043 9.84375C11.3043 9.58374 11.498 9.375 11.7391 9.375H16.9565C17.1977 9.375 17.3913 9.58374 17.3913 9.84375C17.3913 10.1038 17.1977 10.3125 16.9565 10.3125ZM16.9565 7.96875H11.7391C11.498 7.96875 11.3043 7.75818 11.3043 7.5C11.3043 7.24182 11.498 7.03125 11.7391 7.03125H16.9565C17.1977 7.03125 17.3913 7.24182 17.3913 7.5C17.3913 7.75818 17.1977 7.96875 16.9565 7.96875ZM16.9565 5.625H11.7391C11.498 5.625 11.3043 5.41443 11.3043 5.15625C11.3043 4.89807 11.498 4.6875 11.7391 4.6875H16.9565C17.1977 4.6875 17.3913 4.89807 17.3913 5.15625C17.3913 5.41443 17.1977 5.625 16.9565 5.625Z" fill="#8C6925"/>
</svg>
