<svg width="21" height="21" viewBox="0 0 21 21" fill="none" xmlns="http://www.w3.org/2000/svg">
<path d="M10.5004 1.3999C10.2438 1.3999 9.98744 1.52426 9.83729 1.77451L9.54608 2.2626C9.42008 2.4726 9.21186 2.61382 8.97596 2.67822C8.97316 2.67892 8.97056 2.68026 8.96776 2.68096C8.72906 2.74676 8.47585 2.72753 8.25955 2.60713L7.76327 2.33096C7.25297 2.04746 6.62463 2.40954 6.61483 2.99404L6.60389 3.571C6.59969 3.8146 6.49172 4.04067 6.31952 4.21357C6.31742 4.21497 6.31545 4.21694 6.31405 4.21904C6.14185 4.39194 5.91507 4.49922 5.67147 4.50342L5.09452 4.51299C4.51072 4.52279 4.14793 5.15179 4.43143 5.66279L4.70897 6.16182C4.82797 6.37672 4.8479 6.62795 4.7828 6.86455C4.7807 6.86875 4.7801 6.87266 4.7787 6.87686C4.715 7.11136 4.5737 7.31757 4.3658 7.44287L3.87635 7.73682C3.37585 8.03712 3.37585 8.76269 3.87635 9.06299L4.3658 9.35693C4.5744 9.48223 4.715 9.68845 4.7787 9.92295C4.7801 9.92715 4.78003 9.93172 4.78143 9.93662C4.84653 10.1732 4.82797 10.4252 4.70897 10.6394L4.43143 11.1384C4.14793 11.6487 4.51002 12.277 5.09452 12.2868L5.67147 12.2964C5.91577 12.3006 6.14185 12.4099 6.31405 12.5821L6.31952 12.5876C6.49242 12.7598 6.59969 12.9866 6.60389 13.2302L6.61346 13.8058C6.62326 14.3896 7.25297 14.753 7.76327 14.4702L8.26229 14.1927C8.47719 14.0737 8.72842 14.0537 8.96502 14.1188C8.96922 14.1202 8.97313 14.1215 8.97733 14.1229C9.21183 14.1866 9.41804 14.3272 9.54334 14.5358L9.83729 15.0253C10.1376 15.5258 10.8632 15.5258 11.1635 15.0253L11.4574 14.5358C11.5827 14.3272 11.7889 14.1866 12.0234 14.1229C12.0276 14.1215 12.0329 14.1202 12.0371 14.1188C12.2737 14.0537 12.5256 14.0737 12.7398 14.1927L13.2389 14.4702C13.7492 14.7537 14.3775 14.3903 14.3873 13.8058L14.3969 13.2302C14.4011 12.9859 14.5104 12.7598 14.6826 12.5876L14.6881 12.5821C14.8603 12.4092 15.087 12.3006 15.3306 12.2964L15.9062 12.2868C16.49 12.277 16.8535 11.6487 16.5707 11.1384L16.2931 10.6394C16.1741 10.4245 16.1542 10.1732 16.2193 9.93662C16.2207 9.93242 16.222 9.92715 16.2234 9.92295C16.2871 9.68845 16.4277 9.48223 16.6363 9.35693L17.1258 9.06299C17.6263 8.76199 17.6263 8.03782 17.1258 7.73682L16.6363 7.44287C16.4277 7.31757 16.2871 7.11136 16.2234 6.87686C16.222 6.87266 16.2207 6.86738 16.2193 6.86318C16.1542 6.62658 16.1741 6.37465 16.2931 6.16045L16.5707 5.66143C16.8542 5.15113 16.4907 4.52279 15.9062 4.51299L15.3306 4.50342C15.0863 4.49922 14.8603 4.38988 14.6881 4.21768L14.6826 4.21221C14.5097 4.04001 14.4011 3.81323 14.3969 3.56963L14.3873 2.99404C14.3775 2.41024 13.7492 2.04679 13.2389 2.32959L12.7398 2.60713C12.5249 2.72613 12.2737 2.74606 12.0371 2.68096C12.0329 2.67956 12.0276 2.67826 12.0234 2.67686C11.7889 2.61316 11.5827 2.47186 11.4574 2.26396L11.1635 1.77451C11.0133 1.52426 10.7569 1.3999 10.5004 1.3999ZM13.3004 6.2999C13.4794 6.2999 13.6584 6.36813 13.7953 6.50498C14.069 6.77868 14.069 7.22112 13.7953 7.49482L10.6029 10.6872C10.4713 10.8188 10.2935 10.8923 10.108 10.8923C9.92249 10.8923 9.74397 10.8188 9.61307 10.6872L7.89588 8.97002C7.62218 8.69632 7.62218 8.25388 7.89588 7.98018C8.16958 7.70648 8.61203 7.70648 8.88573 7.98018L10.108 9.20244L12.8055 6.50498C12.9423 6.36813 13.1214 6.2999 13.3004 6.2999ZM5.42401 14.7108L3.87909 18.4118L6.59295 18.1739L8.40037 20.2999L9.89881 16.711C9.37731 16.5619 8.926 16.2274 8.6369 15.7444L8.56444 15.6241L8.44276 15.6925C8.11936 15.8717 7.75546 15.9659 7.38866 15.9659C6.52486 15.9659 5.77331 15.4493 5.42401 14.7108ZM15.5767 14.7108C15.2274 15.4493 14.4759 15.9673 13.6121 15.9673C13.246 15.9673 12.8814 15.8724 12.558 15.6925L12.4363 15.6241L12.3639 15.7444C12.0741 16.2267 11.6221 16.5626 11.1006 16.711L12.6004 20.2999L14.4078 18.1753L17.1217 18.4118L15.5767 14.7108Z" fill="#8C6925"/>
</svg>
