<svg width="25" height="25" viewBox="0 0 25 25" fill="none" xmlns="http://www.w3.org/2000/svg">
<path d="M22.4392 21.782C22.2952 21.101 22.0402 20.1133 21.6419 18.6253C20.3084 13.6348 28.9837 5.69827 20.9309 1.27177C13.2614 -2.94398 10.2449 6.15052 8.03166 7.78027C6.03741 9.28102 3.87441 9.59301 2.36166 9.93727C1.88916 10.004 1.48266 10.127 1.15716 10.3115C0.819658 10.4728 0.578159 10.6768 0.471659 10.9738C-0.744841 13.106 3.16791 17.651 9.21591 21.1213C13.1639 23.3878 17.0429 24.6343 19.5989 24.6343C20.9594 24.6343 21.9487 24.2818 22.3717 23.5385C22.5209 23.3255 22.6027 23.1283 22.5817 22.7263C22.5937 22.4345 22.5412 22.118 22.4392 21.782ZM20.9182 22.6925C20.2664 25.2973 13.3462 22.4008 9.81291 20.375C3.90741 16.9858 0.497909 13.0288 1.92591 11.819C1.98741 11.7515 2.36091 11.5633 3.23916 11.5633C5.59191 11.5633 9.24966 12.8248 12.7867 14.8573C18.6967 18.2428 21.1544 21.9013 20.9182 22.6925Z" fill="#FFCA28"/>
</svg>
