<svg width="23" height="23" viewBox="0 0 23 23" fill="none" xmlns="http://www.w3.org/2000/svg">
<path d="M8.05 0C3.61773 0 0 3.61773 0 8.05C0 12.4823 3.61773 16.1 8.05 16.1C10.0602 16.1 11.8968 15.3502 13.3104 14.1234L13.8 14.6131V16.1L20.7 23L23 20.7L16.1 13.8H14.6131L14.1234 13.3104C15.3502 11.8968 16.1 10.0602 16.1 8.05C16.1 3.61773 12.4823 0 8.05 0ZM8.05 2.3C11.2393 2.3 13.8 4.86074 13.8 8.05C13.8 11.2393 11.2393 13.8 8.05 13.8C4.86074 13.8 2.3 11.2393 2.3 8.05C2.3 4.86074 4.86074 2.3 8.05 2.3Z" fill="#202938"/>
</svg>
