<svg width="24" height="24" viewBox="0 0 24 24" fill="none" xmlns="http://www.w3.org/2000/svg">
<path d="M2 2V22H4V21C4 20 4.89453 19 6 19C7.65234 19 8.99219 17.6484 9 16L6 15L9 14V13L10.5625 12C11.0078 11.7031 11.1172 11.1133 10.8438 10.6562L8 8C8 3.48438 5.25781 2 2 2ZM18 7L14.8125 16.4062L13.625 14H10V16H12.375L15 22L18.0938 12.9062L19.3125 16H22V14H20.6875L18 7Z" fill="#DC9507"/>
<path d="M2 2V22H4V21C4 20 4.89453 19 6 19C7.65234 19 8.99219 17.6484 9 16L6 15L9 14V13L10.5625 12C11.0078 11.7031 11.1172 11.1133 10.8438 10.6562L8 8C8 3.48438 5.25781 2 2 2ZM18 7L14.8125 16.4062L13.625 14H10V16H12.375L15 22L18.0938 12.9062L19.3125 16H22V14H20.6875L18 7Z" fill="url(#paint0_radial_251_1495)" fill-opacity="0.7"/>
<path d="M2 2V22H4V21C4 20 4.89453 19 6 19C7.65234 19 8.99219 17.6484 9 16L6 15L9 14V13L10.5625 12C11.0078 11.7031 11.1172 11.1133 10.8438 10.6562L8 8C8 3.48438 5.25781 2 2 2ZM18 7L14.8125 16.4062L13.625 14H10V16H12.375L15 22L18.0938 12.9062L19.3125 16H22V14H20.6875L18 7Z" fill="url(#paint1_radial_251_1495)"/>
<path d="M2 2V22H4V21C4 20 4.89453 19 6 19C7.65234 19 8.99219 17.6484 9 16L6 15L9 14V13L10.5625 12C11.0078 11.7031 11.1172 11.1133 10.8438 10.6562L8 8C8 3.48438 5.25781 2 2 2ZM18 7L14.8125 16.4062L13.625 14H10V16H12.375L15 22L18.0938 12.9062L19.3125 16H22V14H20.6875L18 7Z" fill="black" fill-opacity="0.2"/>
<path d="M2 2V22H4V21C4 20 4.89453 19 6 19C7.65234 19 8.99219 17.6484 9 16L6 15L9 14V13L10.5625 12C11.0078 11.7031 11.1172 11.1133 10.8438 10.6562L8 8C8 3.48438 5.25781 2 2 2ZM18 7L14.8125 16.4062L13.625 14H10V16H12.375L15 22L18.0938 12.9062L19.3125 16H22V14H20.6875L18 7Z" fill="black" fill-opacity="0.2"/>
<defs>
<radialGradient id="paint0_radial_251_1495" cx="0" cy="0" r="1" gradientUnits="userSpaceOnUse" gradientTransform="translate(7.27778 6.16667) rotate(51.0441) scale(16.7889 16.7889)">
<stop stop-color="white" stop-opacity="0.59"/>
<stop offset="0.697917" stop-color="white" stop-opacity="0"/>
<stop offset="1" stop-color="white" stop-opacity="0"/>
</radialGradient>
<radialGradient id="paint1_radial_251_1495" cx="0" cy="0" r="1" gradientTransform="matrix(-1.09589 -17.0833 -18.4173 10.9306 19.2603 19.5)" gradientUnits="userSpaceOnUse">
<stop stop-opacity="0.23"/>
<stop offset="0.861815" stop-opacity="0"/>
</radialGradient>
</defs>
</svg>
