<svg width="25" height="25" viewBox="0 0 25 25" fill="none" xmlns="http://www.w3.org/2000/svg">
<path d="M7.91634 2.5C7.14279 2.5 6.40093 2.80729 5.85395 3.35427C5.30697 3.90125 4.99967 4.64312 4.99967 5.41667C4.99967 6.19021 5.30697 6.93208 5.85395 7.47906C6.40093 8.02604 7.14279 8.33333 7.91634 8.33333C8.68989 8.33333 9.43176 8.02604 9.97874 7.47906C10.5257 6.93208 10.833 6.19021 10.833 5.41667C10.833 4.64312 10.5257 3.90125 9.97874 3.35427C9.43176 2.80729 8.68989 2.5 7.91634 2.5ZM17.083 2.5C16.3095 2.5 15.5676 2.80729 15.0206 3.35427C14.4736 3.90125 14.1663 4.64312 14.1663 5.41667C14.1663 6.19021 14.4736 6.93208 15.0206 7.47906C15.5676 8.02604 16.3095 8.33333 17.083 8.33333C17.8566 8.33333 18.5984 8.02604 19.1454 7.47906C19.6924 6.93208 19.9997 6.19021 19.9997 5.41667C19.9997 4.64312 19.6924 3.90125 19.1454 3.35427C18.5984 2.80729 17.8566 2.5 17.083 2.5ZM7.49967 10C5.19884 10 3.33301 11.8658 3.33301 14.1667V20C3.33301 20.9208 4.07884 21.6667 4.99967 21.6667H8.33301C8.33301 19.8258 9.82551 18.3333 11.6663 18.3333H13.333C15.1738 18.3333 16.6663 19.8258 16.6663 21.6667H19.9997C20.9205 21.6667 21.6663 20.9208 21.6663 20V14.1667C21.6663 11.8658 19.8005 10 17.4997 10H7.49967ZM12.4997 11.6667C13.8805 11.6667 14.9997 12.7858 14.9997 14.1667C14.9997 15.5475 13.8805 16.6667 12.4997 16.6667C11.1188 16.6667 9.99967 15.5475 9.99967 14.1667C9.99967 12.7858 11.1188 11.6667 12.4997 11.6667Z" fill="#8C6925"/>
</svg>
