<svg width="17" height="17" viewBox="0 0 17 17" fill="none" xmlns="http://www.w3.org/2000/svg">
<g clip-path="url(#clip0_554_780)">
<path d="M17.0002 9.26252C17.0002 9.88143 15.186 10.746 12.2323 10.746C11.5111 10.746 10.8218 10.6916 10.179 10.5867C10.1896 10.5282 10.2016 10.4711 10.2016 10.4113V8.72197C10.8444 8.82025 11.5244 8.87205 12.2323 8.87205C14.081 8.87205 16.0095 8.49885 17.0002 7.79361V9.26252ZM9.52156 10.4113C9.52156 11.0276 7.71398 11.8896 4.77086 11.8896C1.82773 11.8896 0.0214844 11.0289 0.0214844 10.4113V8.95041C1.00961 9.65299 2.92875 10.0235 4.77086 10.0235C6.61297 10.0235 8.53211 9.65299 9.52156 8.95041V10.4113ZM0.0214844 11.4951C1.01094 12.1977 2.93008 12.5696 4.77086 12.5696C6.61297 12.5696 8.53211 12.1977 9.52156 11.4951V12.956C9.52156 13.5736 7.71398 14.4342 4.77086 14.4342C1.82906 14.4342 0.0214844 13.5736 0.0214844 12.956V11.4951ZM17.0002 4.15455C17.0002 4.77346 15.186 5.63807 12.2323 5.63807C9.27852 5.63807 7.4643 4.77346 7.4643 4.15455V2.68564C8.45508 3.39088 10.3822 3.76408 12.2323 3.76408C14.081 3.76408 16.0095 3.39088 17.0002 2.68564V4.15455ZM12.2323 0.115723C15.186 0.115723 17.0002 0.980332 17.0002 1.59924C17.0002 2.21947 15.186 3.08408 12.2323 3.08408C9.27852 3.08408 7.4643 2.21947 7.4643 1.59924C7.4643 0.980332 9.27719 0.115723 12.2323 0.115723ZM7.4643 5.2383C8.45508 5.94486 10.3822 6.31807 12.2323 6.31807C14.081 6.31807 16.0095 5.94486 17.0002 5.2383V6.70854C17.0002 7.32744 15.186 8.19205 12.2323 8.19205C11.5244 8.19205 10.8218 8.13494 10.1803 8.03135C10.1896 7.97689 10.2016 7.92377 10.2016 7.86666C10.2016 6.95557 9.01555 6.3194 7.4643 5.98338V5.2383ZM4.77086 6.38846C7.71398 6.38846 9.52156 7.24908 9.52156 7.86666C9.52156 8.48291 7.71398 9.34354 4.77086 9.34354C1.82773 9.34354 0.0214844 8.48291 0.0214844 7.86666C0.0214844 7.24908 1.82906 6.38846 4.77086 6.38846ZM4.77086 16.9789C1.82906 16.9789 0.0214844 16.1183 0.0214844 15.5007V14.0398C1.00961 14.7424 2.92875 15.1142 4.77086 15.1142C6.61297 15.1142 8.53211 14.7424 9.52156 14.0398V15.5007C9.52156 16.1183 7.71398 16.9789 4.77086 16.9789ZM12.2323 13.3C11.5151 13.3 10.8258 13.2456 10.1777 13.1406C10.1896 13.0796 10.2016 13.0198 10.2016 12.956V11.2773C10.8417 11.3742 11.523 11.426 12.2323 11.426C14.081 11.426 16.0095 11.0528 17.0002 10.3476V11.8165C17.0002 12.4354 15.186 13.3 12.2323 13.3Z" fill="#DC9507"/>
<path d="M17.0002 9.26252C17.0002 9.88143 15.186 10.746 12.2323 10.746C11.5111 10.746 10.8218 10.6916 10.179 10.5867C10.1896 10.5282 10.2016 10.4711 10.2016 10.4113V8.72197C10.8444 8.82025 11.5244 8.87205 12.2323 8.87205C14.081 8.87205 16.0095 8.49885 17.0002 7.79361V9.26252ZM9.52156 10.4113C9.52156 11.0276 7.71398 11.8896 4.77086 11.8896C1.82773 11.8896 0.0214844 11.0289 0.0214844 10.4113V8.95041C1.00961 9.65299 2.92875 10.0235 4.77086 10.0235C6.61297 10.0235 8.53211 9.65299 9.52156 8.95041V10.4113ZM0.0214844 11.4951C1.01094 12.1977 2.93008 12.5696 4.77086 12.5696C6.61297 12.5696 8.53211 12.1977 9.52156 11.4951V12.956C9.52156 13.5736 7.71398 14.4342 4.77086 14.4342C1.82906 14.4342 0.0214844 13.5736 0.0214844 12.956V11.4951ZM17.0002 4.15455C17.0002 4.77346 15.186 5.63807 12.2323 5.63807C9.27852 5.63807 7.4643 4.77346 7.4643 4.15455V2.68564C8.45508 3.39088 10.3822 3.76408 12.2323 3.76408C14.081 3.76408 16.0095 3.39088 17.0002 2.68564V4.15455ZM12.2323 0.115723C15.186 0.115723 17.0002 0.980332 17.0002 1.59924C17.0002 2.21947 15.186 3.08408 12.2323 3.08408C9.27852 3.08408 7.4643 2.21947 7.4643 1.59924C7.4643 0.980332 9.27719 0.115723 12.2323 0.115723ZM7.4643 5.2383C8.45508 5.94486 10.3822 6.31807 12.2323 6.31807C14.081 6.31807 16.0095 5.94486 17.0002 5.2383V6.70854C17.0002 7.32744 15.186 8.19205 12.2323 8.19205C11.5244 8.19205 10.8218 8.13494 10.1803 8.03135C10.1896 7.97689 10.2016 7.92377 10.2016 7.86666C10.2016 6.95557 9.01555 6.3194 7.4643 5.98338V5.2383ZM4.77086 6.38846C7.71398 6.38846 9.52156 7.24908 9.52156 7.86666C9.52156 8.48291 7.71398 9.34354 4.77086 9.34354C1.82773 9.34354 0.0214844 8.48291 0.0214844 7.86666C0.0214844 7.24908 1.82906 6.38846 4.77086 6.38846ZM4.77086 16.9789C1.82906 16.9789 0.0214844 16.1183 0.0214844 15.5007V14.0398C1.00961 14.7424 2.92875 15.1142 4.77086 15.1142C6.61297 15.1142 8.53211 14.7424 9.52156 14.0398V15.5007C9.52156 16.1183 7.71398 16.9789 4.77086 16.9789ZM12.2323 13.3C11.5151 13.3 10.8258 13.2456 10.1777 13.1406C10.1896 13.0796 10.2016 13.0198 10.2016 12.956V11.2773C10.8417 11.3742 11.523 11.426 12.2323 11.426C14.081 11.426 16.0095 11.0528 17.0002 10.3476V11.8165C17.0002 12.4354 15.186 13.3 12.2323 13.3Z" fill="url(#paint0_radial_554_780)" fill-opacity="0.7"/>
<path d="M17.0002 9.26252C17.0002 9.88143 15.186 10.746 12.2323 10.746C11.5111 10.746 10.8218 10.6916 10.179 10.5867C10.1896 10.5282 10.2016 10.4711 10.2016 10.4113V8.72197C10.8444 8.82025 11.5244 8.87205 12.2323 8.87205C14.081 8.87205 16.0095 8.49885 17.0002 7.79361V9.26252ZM9.52156 10.4113C9.52156 11.0276 7.71398 11.8896 4.77086 11.8896C1.82773 11.8896 0.0214844 11.0289 0.0214844 10.4113V8.95041C1.00961 9.65299 2.92875 10.0235 4.77086 10.0235C6.61297 10.0235 8.53211 9.65299 9.52156 8.95041V10.4113ZM0.0214844 11.4951C1.01094 12.1977 2.93008 12.5696 4.77086 12.5696C6.61297 12.5696 8.53211 12.1977 9.52156 11.4951V12.956C9.52156 13.5736 7.71398 14.4342 4.77086 14.4342C1.82906 14.4342 0.0214844 13.5736 0.0214844 12.956V11.4951ZM17.0002 4.15455C17.0002 4.77346 15.186 5.63807 12.2323 5.63807C9.27852 5.63807 7.4643 4.77346 7.4643 4.15455V2.68564C8.45508 3.39088 10.3822 3.76408 12.2323 3.76408C14.081 3.76408 16.0095 3.39088 17.0002 2.68564V4.15455ZM12.2323 0.115723C15.186 0.115723 17.0002 0.980332 17.0002 1.59924C17.0002 2.21947 15.186 3.08408 12.2323 3.08408C9.27852 3.08408 7.4643 2.21947 7.4643 1.59924C7.4643 0.980332 9.27719 0.115723 12.2323 0.115723ZM7.4643 5.2383C8.45508 5.94486 10.3822 6.31807 12.2323 6.31807C14.081 6.31807 16.0095 5.94486 17.0002 5.2383V6.70854C17.0002 7.32744 15.186 8.19205 12.2323 8.19205C11.5244 8.19205 10.8218 8.13494 10.1803 8.03135C10.1896 7.97689 10.2016 7.92377 10.2016 7.86666C10.2016 6.95557 9.01555 6.3194 7.4643 5.98338V5.2383ZM4.77086 6.38846C7.71398 6.38846 9.52156 7.24908 9.52156 7.86666C9.52156 8.48291 7.71398 9.34354 4.77086 9.34354C1.82773 9.34354 0.0214844 8.48291 0.0214844 7.86666C0.0214844 7.24908 1.82906 6.38846 4.77086 6.38846ZM4.77086 16.9789C1.82906 16.9789 0.0214844 16.1183 0.0214844 15.5007V14.0398C1.00961 14.7424 2.92875 15.1142 4.77086 15.1142C6.61297 15.1142 8.53211 14.7424 9.52156 14.0398V15.5007C9.52156 16.1183 7.71398 16.9789 4.77086 16.9789ZM12.2323 13.3C11.5151 13.3 10.8258 13.2456 10.1777 13.1406C10.1896 13.0796 10.2016 13.0198 10.2016 12.956V11.2773C10.8417 11.3742 11.523 11.426 12.2323 11.426C14.081 11.426 16.0095 11.0528 17.0002 10.3476V11.8165C17.0002 12.4354 15.186 13.3 12.2323 13.3Z" fill="url(#paint1_radial_554_780)"/>
<path d="M17.0002 9.26252C17.0002 9.88143 15.186 10.746 12.2323 10.746C11.5111 10.746 10.8218 10.6916 10.179 10.5867C10.1896 10.5282 10.2016 10.4711 10.2016 10.4113V8.72197C10.8444 8.82025 11.5244 8.87205 12.2323 8.87205C14.081 8.87205 16.0095 8.49885 17.0002 7.79361V9.26252ZM9.52156 10.4113C9.52156 11.0276 7.71398 11.8896 4.77086 11.8896C1.82773 11.8896 0.0214844 11.0289 0.0214844 10.4113V8.95041C1.00961 9.65299 2.92875 10.0235 4.77086 10.0235C6.61297 10.0235 8.53211 9.65299 9.52156 8.95041V10.4113ZM0.0214844 11.4951C1.01094 12.1977 2.93008 12.5696 4.77086 12.5696C6.61297 12.5696 8.53211 12.1977 9.52156 11.4951V12.956C9.52156 13.5736 7.71398 14.4342 4.77086 14.4342C1.82906 14.4342 0.0214844 13.5736 0.0214844 12.956V11.4951ZM17.0002 4.15455C17.0002 4.77346 15.186 5.63807 12.2323 5.63807C9.27852 5.63807 7.4643 4.77346 7.4643 4.15455V2.68564C8.45508 3.39088 10.3822 3.76408 12.2323 3.76408C14.081 3.76408 16.0095 3.39088 17.0002 2.68564V4.15455ZM12.2323 0.115723C15.186 0.115723 17.0002 0.980332 17.0002 1.59924C17.0002 2.21947 15.186 3.08408 12.2323 3.08408C9.27852 3.08408 7.4643 2.21947 7.4643 1.59924C7.4643 0.980332 9.27719 0.115723 12.2323 0.115723ZM7.4643 5.2383C8.45508 5.94486 10.3822 6.31807 12.2323 6.31807C14.081 6.31807 16.0095 5.94486 17.0002 5.2383V6.70854C17.0002 7.32744 15.186 8.19205 12.2323 8.19205C11.5244 8.19205 10.8218 8.13494 10.1803 8.03135C10.1896 7.97689 10.2016 7.92377 10.2016 7.86666C10.2016 6.95557 9.01555 6.3194 7.4643 5.98338V5.2383ZM4.77086 6.38846C7.71398 6.38846 9.52156 7.24908 9.52156 7.86666C9.52156 8.48291 7.71398 9.34354 4.77086 9.34354C1.82773 9.34354 0.0214844 8.48291 0.0214844 7.86666C0.0214844 7.24908 1.82906 6.38846 4.77086 6.38846ZM4.77086 16.9789C1.82906 16.9789 0.0214844 16.1183 0.0214844 15.5007V14.0398C1.00961 14.7424 2.92875 15.1142 4.77086 15.1142C6.61297 15.1142 8.53211 14.7424 9.52156 14.0398V15.5007C9.52156 16.1183 7.71398 16.9789 4.77086 16.9789ZM12.2323 13.3C11.5151 13.3 10.8258 13.2456 10.1777 13.1406C10.1896 13.0796 10.2016 13.0198 10.2016 12.956V11.2773C10.8417 11.3742 11.523 11.426 12.2323 11.426C14.081 11.426 16.0095 11.0528 17.0002 10.3476V11.8165C17.0002 12.4354 15.186 13.3 12.2323 13.3Z" fill="black" fill-opacity="0.2"/>
<path d="M17.0002 9.26252C17.0002 9.88143 15.186 10.746 12.2323 10.746C11.5111 10.746 10.8218 10.6916 10.179 10.5867C10.1896 10.5282 10.2016 10.4711 10.2016 10.4113V8.72197C10.8444 8.82025 11.5244 8.87205 12.2323 8.87205C14.081 8.87205 16.0095 8.49885 17.0002 7.79361V9.26252ZM9.52156 10.4113C9.52156 11.0276 7.71398 11.8896 4.77086 11.8896C1.82773 11.8896 0.0214844 11.0289 0.0214844 10.4113V8.95041C1.00961 9.65299 2.92875 10.0235 4.77086 10.0235C6.61297 10.0235 8.53211 9.65299 9.52156 8.95041V10.4113ZM0.0214844 11.4951C1.01094 12.1977 2.93008 12.5696 4.77086 12.5696C6.61297 12.5696 8.53211 12.1977 9.52156 11.4951V12.956C9.52156 13.5736 7.71398 14.4342 4.77086 14.4342C1.82906 14.4342 0.0214844 13.5736 0.0214844 12.956V11.4951ZM17.0002 4.15455C17.0002 4.77346 15.186 5.63807 12.2323 5.63807C9.27852 5.63807 7.4643 4.77346 7.4643 4.15455V2.68564C8.45508 3.39088 10.3822 3.76408 12.2323 3.76408C14.081 3.76408 16.0095 3.39088 17.0002 2.68564V4.15455ZM12.2323 0.115723C15.186 0.115723 17.0002 0.980332 17.0002 1.59924C17.0002 2.21947 15.186 3.08408 12.2323 3.08408C9.27852 3.08408 7.4643 2.21947 7.4643 1.59924C7.4643 0.980332 9.27719 0.115723 12.2323 0.115723ZM7.4643 5.2383C8.45508 5.94486 10.3822 6.31807 12.2323 6.31807C14.081 6.31807 16.0095 5.94486 17.0002 5.2383V6.70854C17.0002 7.32744 15.186 8.19205 12.2323 8.19205C11.5244 8.19205 10.8218 8.13494 10.1803 8.03135C10.1896 7.97689 10.2016 7.92377 10.2016 7.86666C10.2016 6.95557 9.01555 6.3194 7.4643 5.98338V5.2383ZM4.77086 6.38846C7.71398 6.38846 9.52156 7.24908 9.52156 7.86666C9.52156 8.48291 7.71398 9.34354 4.77086 9.34354C1.82773 9.34354 0.0214844 8.48291 0.0214844 7.86666C0.0214844 7.24908 1.82906 6.38846 4.77086 6.38846ZM4.77086 16.9789C1.82906 16.9789 0.0214844 16.1183 0.0214844 15.5007V14.0398C1.00961 14.7424 2.92875 15.1142 4.77086 15.1142C6.61297 15.1142 8.53211 14.7424 9.52156 14.0398V15.5007C9.52156 16.1183 7.71398 16.9789 4.77086 16.9789ZM12.2323 13.3C11.5151 13.3 10.8258 13.2456 10.1777 13.1406C10.1896 13.0796 10.2016 13.0198 10.2016 12.956V11.2773C10.8417 11.3742 11.523 11.426 12.2323 11.426C14.081 11.426 16.0095 11.0528 17.0002 10.3476V11.8165C17.0002 12.4354 15.186 13.3 12.2323 13.3Z" fill="black" fill-opacity="0.2"/>
</g>
<defs>
<radialGradient id="paint0_radial_554_780" cx="0" cy="0" r="1" gradientTransform="matrix(8.96101 11.0079 -11.0834 8.90003 4.50199 3.62889)" gradientUnits="userSpaceOnUse">
<stop stop-color="white" stop-opacity="0.59"/>
<stop offset="0.697917" stop-color="white" stop-opacity="0"/>
<stop offset="1" stop-color="white" stop-opacity="0"/>
</radialGradient>
<radialGradient id="paint1_radial_554_780" cx="0" cy="0" r="1" gradientTransform="matrix(-0.930343 -14.404 -15.6351 9.21622 14.6744 14.871)" gradientUnits="userSpaceOnUse">
<stop stop-opacity="0.23"/>
<stop offset="0.861815" stop-opacity="0"/>
</radialGradient>
<clipPath id="clip0_554_780">
<rect width="17" height="17" fill="white"/>
</clipPath>
</defs>
</svg>
