<svg width="120" height="120" viewBox="0 0 120 120" fill="none" xmlns="http://www.w3.org/2000/svg">
<path d="M59.9576 7.20017C59.5835 7.20589 59.2159 7.299 58.8842 7.47205L8.48418 33.872C8.09624 34.0758 7.77146 34.3818 7.54506 34.7569C7.31865 35.132 7.19925 35.562 7.1998 36.0002V43.2002C7.19987 43.8367 7.45275 44.4471 7.90282 44.8972C8.35289 45.3472 8.9633 45.6001 9.5998 45.6002H16.7811V88.8002H11.9998C11.3633 88.8002 10.7529 89.0531 10.3028 89.5032C9.85275 89.9533 9.59987 90.5637 9.5998 91.2002V96.0002H7.1998C6.5633 96.0002 5.95289 96.2531 5.50282 96.7032C5.05275 97.1533 4.79987 97.7637 4.7998 98.4002V105.6C4.79987 106.237 5.05275 106.847 5.50282 107.297C5.95289 107.747 6.5633 108 7.1998 108H57.5998V103.2H9.5998V100.8H11.9998C12.6363 100.8 13.2467 100.547 13.6968 100.097C14.1469 99.6471 14.3997 99.0367 14.3998 98.4002V93.6002H18.9092C19.0056 93.6123 19.1026 93.6185 19.1998 93.6189H28.7998C28.8923 93.618 28.9846 93.6117 29.0764 93.6002H42.9092C43.0056 93.6123 43.1026 93.6185 43.1998 93.6189H52.7998C52.8923 93.618 52.9846 93.6117 53.0764 93.6002H57.5998V88.8002H55.2186V45.6002H64.7811V73.0455C66.2643 72.3879 67.8954 72.0097 69.6186 72.0049V45.6189H74.3811V72.0002H79.2186V45.6002H88.7811V72.0002H93.6186V45.6189H98.3811V72.0002H103.219V45.6002H110.4C111.036 45.6001 111.647 45.3472 112.097 44.8972C112.547 44.4471 112.8 43.8367 112.8 43.2002V36.0002C112.8 35.562 112.681 35.132 112.455 34.7569C112.228 34.3818 111.903 34.0758 111.515 33.872L61.1154 7.47205C60.7584 7.28573 60.3603 7.19223 59.9576 7.20017ZM59.9998 12.3142L108 37.4533V40.8002H100.894C100.861 40.7988 100.833 40.7814 100.8 40.7814H91.1998C91.1666 40.7814 91.139 40.7988 91.1061 40.8002H76.8936C76.8606 40.7988 76.8331 40.7814 76.7998 40.7814H67.1998C67.1666 40.7814 67.139 40.7988 67.1061 40.8002H53.0904C52.994 40.7881 52.897 40.7818 52.7998 40.7814H43.1998C43.1073 40.7824 43.015 40.7886 42.9232 40.8002H29.0904C28.994 40.7881 28.897 40.7818 28.7998 40.7814H19.1998C19.1073 40.7824 19.015 40.7886 18.9232 40.8002H11.9998V37.4533L59.9998 12.3142ZM59.9998 19.2002C54.7263 19.2002 50.3998 23.5267 50.3998 28.8002C50.3998 34.0737 54.7263 38.4002 59.9998 38.4002C65.2733 38.4002 69.5998 34.0737 69.5998 28.8002C69.5998 23.5267 65.2733 19.2002 59.9998 19.2002ZM59.9998 24.0002C62.6792 24.0002 64.7998 26.1208 64.7998 28.8002C64.7998 31.4796 62.6792 33.6002 59.9998 33.6002C57.3204 33.6002 55.1998 31.4796 55.1998 28.8002C55.1998 26.1208 57.3204 24.0002 59.9998 24.0002ZM31.2186 45.6002H40.7811V88.8002H31.2186V45.6002ZM21.6186 45.6189H26.3811V88.7814H21.6186V45.6189ZM45.6186 45.6189H50.3811V88.7814H45.6186V45.6189ZM69.5998 76.8002C65.8011 76.8002 62.3998 79.7352 62.3998 83.6767V108.324C62.3998 112.122 65.5796 115.2 69.3795 115.2H110.62C114.417 115.2 117.603 112.119 117.6 108.314V83.6767C117.6 79.7368 114.2 76.8002 110.4 76.8002H69.5998ZM69.5998 81.6002H110.4C111.664 81.6002 112.8 82.6727 112.8 83.6767V108.319C112.801 109.473 111.882 110.4 110.62 110.4H69.3795C68.1154 110.4 67.1998 109.469 67.1998 108.324V83.6767C67.1998 82.6743 68.3393 81.6002 69.5998 81.6002ZM99.9748 86.4002C99.1036 86.4002 98.3998 87.0448 98.3998 87.8392V92.1611C98.3998 92.9555 99.106 93.6002 99.9748 93.6002H106.279C107.151 93.6002 107.857 92.9555 107.859 92.1611V87.8392C107.859 87.0448 107.151 86.4002 106.279 86.4002H99.9748ZM74.3998 98.4002C74.0818 98.3957 73.766 98.4544 73.4709 98.573C73.1758 98.6916 72.9072 98.8677 72.6807 99.091C72.4542 99.3143 72.2743 99.5804 72.1516 99.8738C72.0288 100.167 71.9656 100.482 71.9656 100.8C71.9656 101.118 72.0288 101.433 72.1516 101.727C72.2743 102.02 72.4542 102.286 72.6807 102.509C72.9072 102.733 73.1758 102.909 73.4709 103.027C73.766 103.146 74.0818 103.205 74.3998 103.2H76.7998C77.1178 103.205 77.4336 103.146 77.7287 103.027C78.0238 102.909 78.2924 102.733 78.5189 102.509C78.7454 102.286 78.9253 102.02 79.048 101.727C79.1708 101.433 79.234 101.118 79.234 100.8C79.234 100.482 79.1708 100.167 79.048 99.8738C78.9253 99.5804 78.7454 99.3143 78.5189 99.091C78.2924 98.8677 78.0238 98.6916 77.7287 98.573C77.4336 98.4544 77.1178 98.3957 76.7998 98.4002H74.3998ZM83.9998 98.4002C83.6818 98.3957 83.366 98.4544 83.0709 98.573C82.7758 98.6916 82.5072 98.8677 82.2807 99.091C82.0542 99.3143 81.8743 99.5804 81.7516 99.8738C81.6288 100.167 81.5656 100.482 81.5656 100.8C81.5656 101.118 81.6288 101.433 81.7516 101.727C81.8743 102.02 82.0542 102.286 82.2807 102.509C82.5072 102.733 82.7758 102.909 83.0709 103.027C83.366 103.146 83.6818 103.205 83.9998 103.2H86.3998C86.7178 103.205 87.0336 103.146 87.3287 103.027C87.6238 102.909 87.8924 102.733 88.1189 102.509C88.3454 102.286 88.5253 102.02 88.648 101.727C88.7708 101.433 88.834 101.118 88.834 100.8C88.834 100.482 88.7708 100.167 88.648 99.8738C88.5253 99.5804 88.3454 99.3143 88.1189 99.091C87.8924 98.8677 87.6238 98.6916 87.3287 98.573C87.0336 98.4544 86.7178 98.3957 86.3998 98.4002H83.9998ZM93.5998 98.4002C93.2818 98.3957 92.966 98.4544 92.6709 98.573C92.3758 98.6916 92.1072 98.8677 91.8807 99.091C91.6542 99.3143 91.4743 99.5804 91.3516 99.8738C91.2288 100.167 91.1656 100.482 91.1656 100.8C91.1656 101.118 91.2288 101.433 91.3516 101.727C91.4743 102.02 91.6542 102.286 91.8807 102.509C92.1072 102.733 92.3758 102.909 92.6709 103.027C92.966 103.146 93.2818 103.205 93.5998 103.2H95.9998C96.3178 103.205 96.6336 103.146 96.9287 103.027C97.2238 102.909 97.4924 102.733 97.7189 102.509C97.9454 102.286 98.1253 102.02 98.248 101.727C98.3708 101.433 98.434 101.118 98.434 100.8C98.434 100.482 98.3708 100.167 98.248 99.8738C98.1253 99.5804 97.9454 99.3143 97.7189 99.091C97.4924 98.8677 97.2238 98.6916 96.9287 98.573C96.6336 98.4544 96.3178 98.3957 95.9998 98.4002H93.5998ZM103.2 98.4002C102.882 98.3957 102.566 98.4544 102.271 98.573C101.976 98.6916 101.707 98.8677 101.481 99.091C101.254 99.3143 101.074 99.5804 100.952 99.8738C100.829 100.167 100.766 100.482 100.766 100.8C100.766 101.118 100.829 101.433 100.952 101.727C101.074 102.02 101.254 102.286 101.481 102.509C101.707 102.733 101.976 102.909 102.271 103.027C102.566 103.146 102.882 103.205 103.2 103.2H105.6C105.918 103.205 106.234 103.146 106.529 103.027C106.824 102.909 107.092 102.733 107.319 102.509C107.545 102.286 107.725 102.02 107.848 101.727C107.971 101.433 108.034 101.118 108.034 100.8C108.034 100.482 107.971 100.167 107.848 99.8738C107.725 99.5804 107.545 99.3143 107.319 99.091C107.092 98.8677 106.824 98.6916 106.529 98.573C106.234 98.4544 105.918 98.3957 105.6 98.4002H103.2Z" fill="white"/>
</svg>
