<svg width="120" height="120" viewBox="0 0 120 120" fill="none" xmlns="http://www.w3.org/2000/svg">
<path d="M59.9609 14.9656C59.2988 14.976 58.6677 15.2486 58.2063 15.7237C57.745 16.1989 57.4909 16.8376 57.5 17.4998V32.4998C57.4953 32.8311 57.5565 33.16 57.6801 33.4674C57.8036 33.7748 57.987 34.0546 58.2196 34.2906C58.4522 34.5265 58.7294 34.7138 59.035 34.8417C59.3407 34.9696 59.6687 35.0354 60 35.0354C60.3313 35.0354 60.6593 34.9696 60.965 34.8417C61.2706 34.7138 61.5478 34.5265 61.7804 34.2906C62.013 34.0546 62.1964 33.7748 62.3199 33.4674C62.4435 33.16 62.5047 32.8311 62.5 32.4998V17.4998C62.5046 17.1653 62.442 16.8334 62.316 16.5235C62.1899 16.2136 62.003 15.9322 61.7662 15.6959C61.5295 15.4596 61.2477 15.2732 60.9376 15.1478C60.6275 15.0224 60.2954 14.9604 59.9609 14.9656ZM34.6729 24.6727C34.1755 24.6728 33.6895 24.8212 33.277 25.099C32.8645 25.3768 32.5442 25.7713 32.357 26.2321C32.1699 26.6929 32.1244 27.199 32.2264 27.6858C32.3284 28.1725 32.5733 28.6178 32.9297 28.9647L43.5352 39.5701C43.7655 39.8101 44.0414 40.0016 44.3468 40.1336C44.6521 40.2655 44.9807 40.3352 45.3133 40.3386C45.6458 40.342 45.9758 40.279 46.2837 40.1532C46.5916 40.0275 46.8714 39.8416 47.1066 39.6064C47.3418 39.3712 47.5277 39.0915 47.6534 38.7835C47.7791 38.4756 47.8422 38.1457 47.8388 37.8131C47.8354 37.4805 47.7657 37.1519 47.6337 36.8466C47.5018 36.5413 47.3102 36.2653 47.0703 36.035L36.4648 25.4295C36.2319 25.19 35.9533 24.9997 35.6455 24.8697C35.3377 24.7397 35.007 24.6727 34.6729 24.6727ZM85.2539 24.6727C84.6044 24.692 83.988 24.9635 83.5352 25.4295L72.9297 36.035C72.6898 36.2653 72.4982 36.5413 72.3663 36.8466C72.2343 37.1519 72.1646 37.4805 72.1612 37.8131C72.1578 38.1457 72.2209 38.4756 72.3466 38.7835C72.4723 39.0915 72.6582 39.3712 72.8934 39.6064C73.1286 39.8416 73.4083 40.0275 73.7163 40.1532C74.0242 40.279 74.3541 40.342 74.6867 40.3386C75.0193 40.3352 75.3479 40.2655 75.6532 40.1336C75.9586 40.0016 76.2345 39.8101 76.4648 39.5701L87.0703 28.9647C87.4316 28.6135 87.6783 28.1614 87.7782 27.6676C87.8781 27.1738 87.8265 26.6613 87.6301 26.1974C87.4338 25.7334 87.1019 25.3396 86.6778 25.0675C86.2538 24.7954 85.7575 24.6578 85.2539 24.6727ZM60 39.9998C56.1458 39.9998 52.7804 41.5802 50.6348 43.994C48.4892 46.4078 47.5 49.479 47.5 52.4998C47.5 55.5206 48.4892 58.5919 50.6348 61.0057C52.7804 63.4195 56.1458 64.9998 60 64.9998C63.8542 64.9998 67.2196 63.4195 69.3652 61.0057C71.5108 58.5919 72.5 55.5206 72.5 52.4998C72.5 49.479 71.5108 46.4078 69.3652 43.994C67.2196 41.5802 63.8542 39.9998 60 39.9998ZM60 47.4998C61.9792 47.4998 62.9887 48.107 63.7598 48.9744C64.5308 49.8419 65 51.1456 65 52.4998C65 53.854 64.5308 55.1578 63.7598 56.0252C62.9887 56.8927 61.9792 57.4998 60 57.4998C58.0208 57.4998 57.0113 56.8927 56.2402 56.0252C55.4692 55.1578 55 53.854 55 52.4998C55 51.1456 55.4692 49.8419 56.2402 48.9744C57.0113 48.107 58.0208 47.4998 60 47.4998ZM22.5 54.9998C18.6458 54.9998 15.2804 56.5802 13.1348 58.994C10.9892 61.4078 10 64.479 10 67.4998C10 70.5206 10.9892 73.5919 13.1348 76.0057C15.2804 78.4195 18.6458 79.9998 22.5 79.9998C26.3542 79.9998 29.7196 78.4195 31.8652 76.0057C34.0108 73.5919 35 70.5206 35 67.4998C35 64.479 34.0108 61.4078 31.8652 58.994C29.7196 56.5802 26.3542 54.9998 22.5 54.9998ZM97.5 54.9998C93.6458 54.9998 90.2804 56.5802 88.1348 58.994C85.9892 61.4078 85 64.479 85 67.4998C85 70.5206 85.9892 73.5919 88.1348 76.0057C90.2804 78.4195 93.6458 79.9998 97.5 79.9998C101.354 79.9998 104.72 78.4195 106.865 76.0057C109.011 73.5919 110 70.5206 110 67.4998C110 64.479 109.011 61.4078 106.865 58.994C104.72 56.5802 101.354 54.9998 97.5 54.9998ZM22.5 62.4998C24.4792 62.4998 25.4887 63.107 26.2598 63.9744C27.0308 64.8419 27.5 66.1456 27.5 67.4998C27.5 68.854 27.0308 70.1578 26.2598 71.0252C25.4887 71.8927 24.4792 72.4998 22.5 72.4998C20.5208 72.4998 19.5113 71.8927 18.7402 71.0252C17.9692 70.1578 17.5 68.854 17.5 67.4998C17.5 66.1456 17.9692 64.8419 18.7402 63.9744C19.5113 63.107 20.5208 62.4998 22.5 62.4998ZM97.5 62.4998C99.4792 62.4998 100.489 63.107 101.26 63.9744C102.031 64.8419 102.5 66.1456 102.5 67.4998C102.5 68.854 102.031 70.1578 101.26 71.0252C100.489 71.8927 99.4792 72.4998 97.5 72.4998C95.5208 72.4998 94.5113 71.8927 93.7402 71.0252C92.9692 70.1578 92.5 68.854 92.5 67.4998C92.5 66.1456 92.9692 64.8419 93.7402 63.9744C94.5113 63.107 95.5208 62.4998 97.5 62.4998ZM45.1318 69.9998C40.9619 69.9998 37.5 73.4617 37.5 77.6317V85.0535C37.4493 85.0525 37.419 84.9998 37.3682 84.9998H7.63184C3.46191 84.9998 0 88.4617 0 92.6317V97.3729C0 101.945 2.88726 105.882 6.92383 108.457C10.9604 111.031 16.3157 112.505 22.5 112.505C28.684 112.505 34.0345 111.031 38.0713 108.457C39.3594 107.635 40.2521 106.476 41.25 105.4C42.2474 106.475 43.1368 107.636 44.4238 108.457C48.4604 111.031 53.8157 112.505 60 112.505C66.184 112.505 71.5345 111.031 75.5713 108.457C76.8594 107.635 77.7521 106.476 78.75 105.4C79.7474 106.475 80.6368 107.636 81.9238 108.457C85.9604 111.031 91.3157 112.505 97.5 112.505C103.684 112.505 109.035 111.031 113.071 108.457C117.108 105.883 120 101.946 120 97.3729V92.6317C120 88.4617 116.538 84.9998 112.368 84.9998H82.6318C82.581 84.9998 82.5507 85.0525 82.5 85.0535V77.6317C82.5 73.4617 79.0381 69.9998 74.8682 69.9998H45.1318ZM45.1318 77.4998H74.8682C74.9832 77.4998 75 77.5166 75 77.6317V92.6317V97.3729C75 98.7575 74.0931 100.507 71.543 102.134C68.9928 103.76 64.9685 105.005 60 105.005C55.0318 105.005 51.0073 103.76 48.457 102.134C45.9067 100.507 45 98.7556 45 97.3729V92.6317V77.6317C45 77.5166 45.0168 77.4998 45.1318 77.4998ZM7.63184 92.4998H37.3682C37.4832 92.4998 37.5 92.5166 37.5 92.6317V97.3729C37.5 98.7575 36.5931 100.507 34.043 102.134C31.4928 103.76 27.4685 105.005 22.5 105.005C17.5318 105.005 13.5073 103.76 10.957 102.134C8.40672 100.507 7.5 98.7556 7.5 97.3729V92.6317C7.5 92.5166 7.51676 92.4998 7.63184 92.4998ZM82.6318 92.4998H112.368C112.483 92.4998 112.5 92.5166 112.5 92.6317V97.3729C112.5 98.7575 111.593 100.507 109.043 102.134C106.493 103.76 102.468 105.005 97.5 105.005C92.5318 105.005 88.5073 103.76 85.957 102.134C83.4067 100.507 82.5 98.7556 82.5 97.3729V92.6317C82.5 92.5166 82.5168 92.4998 82.6318 92.4998Z" fill="white"/>
</svg>
