<svg width="131" height="131" viewBox="0 0 131 131" fill="none" xmlns="http://www.w3.org/2000/svg">
<path d="M70.9583 63.3168V5.4585H76.4167C88.425 5.4585 99.3417 9.82516 108.075 18.5585L111.896 22.3793L70.9583 63.3168ZM81.875 16.921V37.1168L96.0667 22.9252C91.7 19.6502 86.7875 17.4668 81.875 16.921ZM16.375 60.0418H60.0417V70.9585H16.375V60.0418Z" fill="white"/>
<path d="M70.8779 78.6152L78.597 70.8959L104.843 97.1408L97.1238 104.86L70.8779 78.6152Z" fill="white"/>
<path d="M104.254 45.304C107.529 51.3082 109.167 58.404 109.167 65.4998C109.167 89.5165 89.517 109.166 65.5003 109.166C41.4837 109.166 21.8337 89.5165 21.8337 65.4998C21.8337 43.1207 38.7545 25.1082 60.042 22.379V10.9165C32.7503 14.1915 10.917 37.1165 10.917 65.4998C10.917 95.5207 35.4795 120.083 65.5003 120.083C95.5212 120.083 120.084 95.5207 120.084 65.4998C120.084 55.129 117.354 45.8498 112.442 37.6623L104.254 45.304Z" fill="white"/>
<path opacity="0.3" d="M60.042 65.4998V10.9165C32.2045 14.1915 10.917 37.1165 10.917 65.4998H60.042ZM104.254 104.254C114.079 94.429 120.084 80.7832 120.084 65.4998C120.084 55.129 117.354 45.8498 112.442 37.6623L74.7795 75.3248L104.254 104.254Z" fill="white"/>
</svg>
