<svg width="124" height="124" viewBox="0 0 124 124" fill="none" xmlns="http://www.w3.org/2000/svg">
<path d="M36.4492 15.5C33.0889 15.5 29.9102 16.9531 27.7002 19.4658L18.376 30.1523C18.376 30.1221 18.376 30.1221 18.3457 30.1523C16.5293 32.2412 15.5 34.9961 15.5 37.7812V96.875C15.5 103.263 20.7373 108.5 27.125 108.5H96.875C103.263 108.5 108.5 103.263 108.5 96.875V37.7812C108.5 34.9961 107.471 32.2412 105.624 30.1523C105.624 30.1221 105.624 30.1221 105.624 30.1523L96.2998 19.4658C94.0898 16.9531 90.8809 15.5 87.5508 15.5H36.4492ZM36.4492 23.25H87.5508C88.6709 23.25 89.7305 23.7344 90.457 24.582L96.0879 31H27.9121L33.543 24.582C34.2695 23.7344 35.3291 23.25 36.4492 23.25ZM23.25 38.75H100.75V96.875C100.75 99.0547 99.0547 100.75 96.875 100.75H27.125C24.9453 100.75 23.25 99.0547 23.25 96.875V38.75ZM46.5 46.5V54.25H77.5V46.5H46.5ZM73.625 62L69.75 69.75V77.5H77.5V69.75L73.625 62ZM89.125 62L85.25 69.75V77.5H93V69.75L89.125 62ZM69.75 85.25V93H93V85.25H69.75Z" fill="white"/>
</svg>
