<svg width="34" height="34" viewBox="0 0 34 34" fill="none" xmlns="http://www.w3.org/2000/svg">
<path d="M16.9997 2.83301C9.20801 2.83301 2.83301 9.20801 2.83301 16.9997C2.83301 24.7913 9.20801 31.1663 16.9997 31.1663C24.7913 31.1663 31.1663 24.7913 31.1663 16.9997C31.1663 9.20801 24.7913 2.83301 16.9997 2.83301Z" fill="white"/>
<path d="M24.083 10.6253L21.4622 24.1545C21.4622 24.1545 21.3205 24.792 20.6122 24.792C20.1872 24.792 19.9747 24.5795 19.9747 24.5795L14.1663 19.8337L11.333 18.417L7.72051 17.4253C7.72051 17.4253 7.08301 17.2128 7.08301 16.717C7.08301 16.292 7.72051 16.0795 7.72051 16.0795L22.808 10.0587C22.808 10.0587 23.3038 9.91699 23.5872 9.91699C23.7997 9.91699 24.0122 9.98783 24.0122 10.2712C24.083 10.4837 24.083 10.6253 24.083 10.6253Z" fill="#202938"/>
<path d="M16.2918 21.6038L13.8835 24.0122C13.8835 24.0122 13.8126 24.083 13.671 24.083C13.6001 24.083 13.6001 24.083 13.5293 24.083L14.2376 19.833L16.2918 21.6038Z" fill="#384762"/>
<path d="M21.1788 12.8912C21.0372 12.7496 20.8247 12.6787 20.683 12.8204L11.333 18.4162C11.333 18.4162 12.8205 22.5954 13.033 23.3037C13.2455 24.0121 13.458 24.0121 13.458 24.0121L14.1663 19.7621L21.108 13.3162C21.2497 13.2454 21.3205 13.0329 21.1788 12.8912Z" fill="#384762"/>
</svg>
