<svg width="18" height="18" viewBox="0 0 18 18" fill="none" xmlns="http://www.w3.org/2000/svg">
<g clip-path="url(#clip0_554_784)">
<path d="M8.99973 0.720215C4.43421 0.720215 0.719727 4.43433 0.719727 9.00021C0.719727 13.5661 4.43421 17.2802 8.99973 17.2802C13.5652 17.2802 17.2797 13.5661 17.2797 9.00021C17.2797 4.43433 13.5652 0.720215 8.99973 0.720215ZM13.5843 4.56465L9.95157 8.49981C10.0308 8.64993 10.0797 8.81877 10.0797 9.00021C10.0797 9.27381 9.97461 9.52113 9.80685 9.71157L11.1144 12.0656C11.2112 12.2391 11.1482 12.4584 10.9747 12.5549C10.9192 12.5858 10.8591 12.6002 10.8001 12.6002C10.6734 12.6002 10.551 12.5333 10.4851 12.4148L9.17793 10.0622C9.11961 10.0719 9.06093 10.0802 8.99973 10.0802C8.40321 10.0802 7.91973 9.59673 7.91973 9.00021C7.91973 8.40369 8.40321 7.92021 8.99973 7.92021C9.15093 7.92021 9.29493 7.95189 9.42561 8.00805L13.0551 4.07577C13.1901 3.93033 13.4176 3.92061 13.5638 4.05561C13.71 4.19061 13.719 4.41813 13.5843 4.56465Z" fill="#8C6925"/>
</g>
<defs>
<clipPath id="clip0_554_784">
<rect width="18" height="18" fill="white"/>
</clipPath>
</defs>
</svg>
