<svg width="226" height="216" viewBox="0 0 226 216" fill="none" xmlns="http://www.w3.org/2000/svg">
<g clip-path="url(#clip0_291_787)">
<path d="M112.348 0L94.1016 18.6409L112.348 36.3942V0Z" fill="#8B6826"/>
<path d="M85.4467 27.3447L112.348 54.0979V86.4484L69.1729 43.5693L85.4467 27.3447Z" fill="#8B6826"/>
<path d="M60.4198 52.6436L112.299 104.103V138.081L43.7021 69.6818L60.4198 52.6436Z" fill="#8B6826"/>
<path d="M112.349 0L130.595 18.6409L112.349 36.3942V0Z" fill="#EACD76"/>
<path d="M139.25 27.3447L112.349 54.0979V86.4484L155.524 43.5693L139.25 27.3447Z" fill="#EACD76"/>
<path d="M164.277 52.6436L112.397 104.103V138.081L180.994 69.6818L164.277 52.6436Z" fill="#EACD76"/>
</g>
<path d="M130.182 157.875L130.699 162.731L128.7 161.678C126.206 160.655 122.08 160.223 119.484 160.953C117.459 161.527 116.158 163.378 117.085 165.397C120.108 171.964 135.444 168.631 132.976 180.502C131.073 189.662 118.983 188.373 111.925 187.122L111.243 181.28C115.737 183.663 124.553 186.934 127.73 181.066C130.71 175.563 121.739 174.181 118.327 172.631C115.534 171.364 112.48 169.126 112.085 165.887C110.998 156.78 123.914 155.888 130.182 157.875Z" fill="#8C6925"/>
<path d="M225.243 177.402H208.304C207.931 177.402 208.204 179.079 208.262 179.417C209.611 186.819 219.481 186.397 224.257 182.667C223.879 184.466 223.632 185.157 222.934 188.08C221.769 188.291 220.589 188.581 219.408 188.734C212.796 189.573 206.121 188.75 203.88 181.522C200.947 172.052 208.556 163.59 218.206 166.629C223.149 168.185 224.949 172.538 225.243 177.407V177.402ZM219.843 174.279C219.46 167.974 209.123 168.143 208.713 174.279H219.843Z" fill="#8C6925"/>
<path d="M73.2432 188.251H68.27V185.456C67.4228 186.088 66.7626 186.927 65.8549 187.497C61.1293 190.461 51.8926 189.126 51.2875 182.739C50.4678 174.021 61.2063 174.011 67.5823 174.274C67.7529 166.653 57.548 169.359 52.9984 171.147L54.5718 166.569C58.4282 166.073 62.7137 165.641 66.5536 166.453C69.6068 167.102 71.3012 168.605 71.8238 171.6C72.7811 177.075 70.8446 183.024 73.2432 188.251ZM67.5548 177.254C63.8745 176.21 55.3695 177.138 55.9141 182.249C56.1561 184.506 59.3414 185.877 61.4649 185.772C66.4546 185.524 67.7364 181.352 67.5603 177.254H67.5548Z" fill="#8C6925"/>
<path d="M160.616 166.082C168.819 165.168 175.867 172.018 173.915 180.204C171.712 189.452 159.13 192.05 152.991 184.894C146.954 177.859 151.473 167.101 160.622 166.087L160.616 166.082ZM160.948 169.536C152.366 170.687 152.911 185.934 162.563 185.639C172.316 185.338 171.969 168.062 160.948 169.536Z" fill="#8C6925"/>
<path d="M100.243 188H92.3504C92.5765 187.755 92.7811 187.494 92.9695 187.222C93.6856 186.168 93.9709 184.904 93.944 183.641C93.8633 180.221 94.4609 176.275 94.0194 173.116C93.8202 171.712 92.1727 169.968 90.8106 169.55C87.6341 168.585 84.4468 170.365 83.7038 173.502C83.2139 175.565 83.2085 182.435 83.4562 184.664C83.5908 185.849 84.3876 187.092 85.136 188H77.2432C78.0507 187.071 78.8099 185.922 78.9283 184.669C79.3806 179.861 78.5784 174.4 78.9229 169.519C78.8852 168.673 78.2446 168.099 77.7493 167.488L83.4562 166.183C83.4885 166.747 83.4131 167.332 83.4562 167.895C83.4669 168.073 83.3647 168.438 83.7038 168.297C83.9192 168.209 84.576 167.556 84.9152 167.353C88.7162 165.071 95.2469 165.593 97.6966 169.55C99.5863 172.594 98.0573 180.926 98.5795 184.81C98.7303 185.917 99.5486 187.139 100.243 188Z" fill="#8C6925"/>
<path d="M200.243 187.995H192.352C193.02 187.103 193.865 185.925 194.015 184.81C194.333 182.454 194.274 176.048 194.01 173.629C193.37 167.723 184.257 167.874 183.503 174.306C183.239 176.574 183.159 182.772 183.471 184.977C183.611 185.951 184.499 187.255 185.134 188H177.243C178.088 186.999 178.772 185.821 178.928 184.513C178.626 179.868 179.31 174.796 178.917 170.204C178.815 169.021 178.508 168.421 177.744 167.52L183.449 166.217C183.482 166.78 183.406 167.363 183.449 167.926C183.465 168.166 183.32 168.395 183.697 168.328C187.18 164.893 194.285 165.341 197.299 169.136C199.716 172.18 198.026 180.947 198.569 184.977C198.715 186.061 199.527 187.176 200.232 188L200.243 187.995Z" fill="#8C6925"/>
<path d="M23.9118 157L24.2432 161.857C24.147 161.964 22.1104 160.686 21.6614 160.686H14.579V185.067C14.579 185.76 15.7443 187.447 16.2467 188H8.41065C8.72602 187.479 9.91265 185.738 9.91265 185.233V160.686H2.8249C2.37056 160.686 0.334033 161.964 0.243164 161.857L0.606638 157H23.9118Z" fill="#8C6925"/>
<path d="M137.705 161.124L142.319 160V166.107H149.243L147.182 169.643H142.319C142.319 169.643 141.558 179.672 142.319 182.904C142.436 183.404 142.932 183.955 143.033 184.053C144.28 185.239 147.409 183.924 148.91 183.625L147.885 187.604C147.552 188.006 142.832 188.047 142.071 187.965C139.666 187.712 137.705 185.594 137.705 183.223V169.643H134.243L135.971 166.267L137.705 166.107V161.124Z" fill="#8C6925"/>
<path d="M42.2428 160V166.313H49.2432L47.4102 169.968H42.2428V183.346C42.2161 183.922 42.6436 184.588 42.9856 184.769C44.733 185.696 47.4049 184.678 49.0775 184.428C48.7355 185.573 48.5324 187.209 48.0355 188.29C47.7843 188.845 46.4751 188.882 45.8338 188.924C42.9589 189.111 39.4106 189.196 38.1602 186.09C38.0693 185.861 37.7433 184.833 37.7433 184.678V169.974H34.2432L35.9371 166.345L37.7433 166.319V161.161L42.2428 160Z" fill="#8C6925"/>
<path d="M31.5758 166V185.168C31.5758 185.837 32.7408 187.466 33.2432 188H25.2432C26.0341 187.098 26.8036 186.076 26.9158 184.852C27.3808 179.811 26.9105 174.241 26.9158 168.992L25.9112 167.136L31.5758 166Z" fill="#8C6925"/>
<path d="M89.2487 215V203.358H91.4946C91.4725 203.842 91.4503 204.361 91.4946 204.856C91.5167 205.108 91.489 205.194 91.6661 205.244C93.3532 202.228 99.0177 202.127 100.047 205.708C100.439 207.08 100.124 207.993 100.113 209.249C100.096 211.166 100.141 213.083 100.119 215H98.0441C97.7012 212.442 99.25 206.707 97.0152 204.846C95.4332 203.524 92.5345 204.361 91.7822 206.223C91.2125 207.635 91.4171 212.251 91.478 213.986C91.489 214.339 91.655 214.652 91.6605 215H89.2432H89.2487Z" fill="#8C6925"/>
<path d="M175.243 215V203.365H177.482C177.504 203.859 177.455 204.363 177.482 204.862C177.493 205.038 177.372 205.295 177.653 205.25C179.352 202.281 184.778 202.104 185.964 205.598C186.505 207.196 186.096 208.235 186.08 209.727C186.058 211.486 186.108 213.246 186.085 215H184.017C183.753 212.5 185.176 206.773 183.08 204.933C181.558 203.597 178.839 204.272 177.968 205.931C177.19 207.413 177.405 211.839 177.477 213.669C177.493 214.118 177.719 214.541 177.653 215H175.243Z" fill="#8C6925"/>
<path d="M124.253 203H126.313C126.227 203.871 126.201 204.775 126.161 205.657C126.069 207.804 125.403 212.218 126.944 213.856C127.987 214.963 130.174 214.919 131.217 213.834C131.786 213.243 132.341 211.599 132.341 210.778V203.005H134.243V215.647H132.336L132.259 213.599C130.927 216.217 126.97 216.896 125.118 214.623C125.118 214.623 125.113 214.617 125.108 214.612C124.548 213.927 124.243 213.04 124.243 212.125V203.005L124.253 203Z" fill="#8C6925"/>
<path d="M223.096 209.355L214.53 209.398C214.019 209.733 214.755 212.312 215.062 212.86C216.713 215.843 220.576 215.513 222.636 213.184C223.101 215.471 219.171 216.125 217.638 215.981C212.931 215.545 211.31 210.903 212.752 206.627C214.791 200.581 224.527 202.506 223.101 209.35L223.096 209.355ZM221.205 208.382C221.215 205.644 220.106 203.213 217.05 203.974C215.583 204.341 214.587 206.707 214.51 208.132C214.489 208.494 214.52 208.34 214.75 208.377C216.876 208.739 219.074 208.505 221.205 208.377V208.382Z" fill="#8C6925"/>
<path d="M57.2432 209.354C54.0462 209.461 52.6104 209.354 47.6972 209.508C47.2148 214.766 52.9637 216.772 56.7159 213.169C57.2319 215.319 53.1769 216.07 51.5503 215.995C42.6718 215.585 43.2495 201.952 52.7618 203.064C54.5342 203.272 57.2432 205.14 57.2432 206.944V209.349V209.354ZM55.1455 208.359C55.3867 202.059 47.9888 202.527 47.7981 208.359C50.9165 208.37 52.5262 208.327 55.1455 208.359Z" fill="#8C6925"/>
<path d="M167.171 215.028C167.704 215.472 165.134 216.189 164.236 215.285C164.074 215.125 163.729 214.167 163.671 214.194C161.77 216.831 156.181 216.762 156.244 212.776C156.312 208.672 161.305 209.678 163.671 208.191C164.606 203.879 159.796 202.552 157.638 205.853C157.194 205.992 157.362 204.687 157.55 204.424C158.286 203.381 161.013 202.9 162.204 203.017C165.651 203.37 165.771 206.27 165.714 209.111C165.682 210.748 164.601 215.371 167.171 215.028ZM163.75 209.186C161.791 209.737 158.411 209.641 158.364 212.439C158.317 215.237 161.363 215.702 163.107 213.947C163.212 213.84 163.755 213.161 163.755 213.108V209.186H163.75Z" fill="#8C6925"/>
<path d="M5.24316 215V197.227C5.64593 197.19 6.00891 197.137 6.4067 197.116C7.34648 197.069 7.82383 196.557 7.58018 198.14C7.51057 198.599 7.42604 199.016 7.41112 199.443C7.26195 204.198 7.52051 208.989 7.44095 213.744C7.44095 213.744 7.37631 214.04 7.80891 214.013C9.41499 213.918 14.2432 213.686 14.2432 213.686C14.2432 214.124 14.2432 214.361 14.2432 215H5.24316Z" fill="#8C6925"/>
<path d="M77.2432 215V197.005C78.2239 197 78.9162 197 79.9419 197L80.2432 215H77.2432Z" fill="#8C6925"/>
<path d="M34.687 215L35.0118 204.148H33.2432V203.192H35.0118C34.986 200.771 36.3009 196.643 39.0235 196.085C40.9675 195.686 39.9517 196.75 40.1579 198.085C36.0689 196.591 36.2648 200.398 36.7805 203.192H39.3535V204.148H36.7805L36.9403 215H34.687Z" fill="#8C6925"/>
<path d="M115.536 203.692L115.036 205.52C114.361 205.413 114.228 204.558 113.606 204.211C111.57 203.078 109.221 205.183 110.327 207.177C111.342 209.004 115.785 208.331 116.184 211.121C116.854 215.791 111.677 216.882 108.243 215.353L108.743 213.354L110.417 214.755C112.384 215.941 115.222 214.455 114.473 212.013C113.904 210.153 108.865 210.592 108.424 207.759C107.744 203.377 112.24 202.025 115.541 203.687L115.536 203.692Z" fill="#8C6925"/>
<path d="M204.45 205.871C204.16 205.072 202.957 204.129 202.114 203.953C197.691 203.026 196.252 206.968 196.585 210.606C197.03 215.469 202.028 216.311 205.207 213.184C205.513 214.75 203.832 215.389 202.576 215.72C197.293 217.12 193.262 213.083 194.453 207.831C195.409 203.639 199.999 202.185 203.816 203.431C205.475 203.974 205.416 204.512 204.455 205.876L204.45 205.871Z" fill="#8C6925"/>
<path d="M150.243 203.036L150.054 205.242C148.176 204.283 146.504 205.081 145.813 206.731C145.122 208.382 145.376 212.314 145.441 214.142C145.452 214.445 145.582 214.707 145.636 215H143.243V203.349H145.636C145.512 203.995 145.435 204.576 145.452 205.318C145.47 206.06 146.232 204.727 146.48 204.465C147.455 203.425 148.631 202.845 150.243 203.036Z" fill="#8C6925"/>
<path d="M25.2432 203H23.2432V215H25.2432V203Z" fill="#8C6925"/>
<path d="M32.2432 159H27.2432V163H32.2432V159Z" fill="#8C6925"/>
<path d="M23.9407 197.047C25.0994 196.669 25.7192 198.667 24.7996 199.672C23.5073 201.084 22.5188 197.51 23.9407 197.047Z" fill="#8C6925"/>
<defs>
<clipPath id="clip0_291_787">
<rect width="137.292" height="138.081" fill="white" transform="translate(43.7021)"/>
</clipPath>
</defs>
</svg>
