<svg width="35" height="32" viewBox="0 0 35 32" fill="none" xmlns="http://www.w3.org/2000/svg">
<path d="M12.9348 0C5.82065 0 0 5.26112 0 11.8338C0 15.5943 1.85587 18.8439 4.84609 21.0293L4.04063 24.1798C3.85042 24.9138 4.6035 25.507 5.18937 25.0947L8.3235 22.8671C9.55611 23.3372 10.9868 23.602 12.4325 23.6515C12.2651 22.901 12.1739 22.1256 12.1739 21.3257C12.1739 15.0334 17.637 9.91224 24.3478 9.91224C24.812 9.91224 25.2602 9.93685 25.7091 9.98633C24.7428 4.3043 19.3717 0 12.9348 0ZM8.36957 5.72281C9.20652 5.72281 9.8913 6.46502 9.8913 7.37217C9.8913 8.27931 9.20652 9.02152 8.36957 9.02152C7.53261 9.02152 6.84783 8.27931 6.84783 7.37217C6.84783 6.46502 7.53261 5.72281 8.36957 5.72281ZM17.5 5.72281C18.337 5.72281 19.0217 6.46502 19.0217 7.37217C19.0217 8.27931 18.337 9.02152 17.5 9.02152C16.663 9.02152 15.9783 8.27931 15.9783 7.37217C15.9783 6.46502 16.663 5.72281 17.5 5.72281ZM24.3478 11.5616C18.4511 11.5616 13.6957 15.9075 13.6957 21.3257C13.6957 26.7438 18.4511 31.0978 24.3478 31.0978C25.8239 31.0978 27.217 30.8344 28.442 30.3891L30.8836 31.8902C31.4694 32.2531 32.1689 31.6588 31.9862 30.9496L31.3933 28.6076C33.6074 26.8346 35 24.2615 35 21.3257C35 15.9075 30.2446 11.5616 24.3478 11.5616ZM20.9239 17.2683C21.5326 17.2683 22.0652 17.8456 22.0652 18.5053C22.0652 19.1651 21.5326 19.7423 20.9239 19.7423C20.3152 19.7423 19.7826 19.1651 19.7826 18.5053C19.7826 17.8456 20.3152 17.2683 20.9239 17.2683ZM27.7717 17.2683C28.3804 17.2683 28.913 17.8456 28.913 18.5053C28.913 19.1651 28.3804 19.7423 27.7717 19.7423C27.163 19.7423 26.6304 19.1651 26.6304 18.5053C26.6304 17.8456 27.163 17.2683 27.7717 17.2683Z" fill="white"/>
</svg>
