<svg width="21" height="21" viewBox="0 0 21 21" fill="none" xmlns="http://www.w3.org/2000/svg">
<path d="M5.46875 18.375H15.5312C17.1019 18.375 18.375 17.1019 18.375 15.5312V5.46875C18.375 3.89813 17.1019 2.625 15.5312 2.625H5.46875C3.89813 2.625 2.625 3.89813 2.625 5.46875V15.5312C2.625 17.1019 3.89813 18.375 5.46875 18.375Z" fill="#00C300"/>
<path d="M16.2366 9.8075C16.2366 7.24156 13.6641 5.15381 10.5023 5.15381C7.34052 5.15381 4.76758 7.24156 4.76758 9.8075C4.76758 12.1079 6.80764 14.0346 9.56345 14.3991C9.75027 14.4393 10.0045 14.5224 10.0688 14.6817C10.1265 14.8265 10.1064 15.0536 10.0871 15.2001C10.0871 15.2001 10.0202 15.6048 10.0053 15.691C9.98039 15.8358 9.89027 16.258 10.5019 16.0003C11.114 15.7426 13.8041 14.0556 15.0073 12.6705H15.0068C15.8385 11.7596 16.2366 10.8343 16.2366 9.8075ZM8.25752 11.3344H7.11827C6.95245 11.3344 6.8177 11.1996 6.8177 11.0334V8.75443C6.8177 8.58862 6.95245 8.45387 7.11827 8.45387C7.28408 8.45387 7.41883 8.58862 7.41883 8.75443V10.7324H8.25752C8.42333 10.7324 8.55808 10.8671 8.55808 11.0329C8.55808 11.1992 8.42333 11.3344 8.25752 11.3344ZM9.4357 11.0334C9.4357 11.1992 9.30095 11.3344 9.13514 11.3344C8.96933 11.3344 8.83458 11.1996 8.83458 11.0334V8.75443C8.83458 8.58862 8.96933 8.45387 9.13514 8.45387C9.30095 8.45387 9.4357 8.58862 9.4357 8.75443V11.0334ZM12.1788 11.0334C12.1788 11.1633 12.0966 11.2779 11.9732 11.3186C11.9421 11.3291 11.9098 11.3344 11.8778 11.3344C11.7838 11.3344 11.6941 11.2893 11.6376 11.2141L10.47 9.62375V11.0334C10.47 11.1992 10.3352 11.3344 10.169 11.3344C10.0031 11.3344 9.86795 11.1996 9.86795 11.0334V8.75443C9.86795 8.62493 9.95064 8.51031 10.0736 8.46918C10.1046 8.45868 10.1366 8.45387 10.169 8.45387C10.2626 8.45387 10.3527 8.49893 10.4091 8.57418L11.5773 10.1645V8.75443C11.5773 8.58862 11.7125 8.45387 11.8783 8.45387C12.0441 8.45387 12.1788 8.58862 12.1788 8.75443V11.0334ZM14.0225 9.59312C14.1883 9.59312 14.3235 9.72787 14.3235 9.89412C14.3235 10.0599 14.1887 10.1947 14.0225 10.1947H13.1838V10.7328H14.0225C14.1883 10.7328 14.3235 10.8676 14.3235 11.0334C14.3235 11.1992 14.1883 11.3344 14.0225 11.3344H12.8832C12.7178 11.3344 12.5826 11.1996 12.5826 11.0334V9.89456V9.89368V8.75575C12.5826 8.75531 12.5826 8.75531 12.5826 8.75487C12.5826 8.58906 12.7174 8.45431 12.8832 8.45431H14.0225C14.1883 8.45431 14.3235 8.58906 14.3235 8.75487C14.3235 8.92068 14.1887 9.05543 14.0225 9.05543H13.1838V9.59356L14.0225 9.59312Z" fill="white"/>
</svg>
