<svg width="16" height="15" viewBox="0 0 16 15" fill="none" xmlns="http://www.w3.org/2000/svg">
<path d="M8.00005 0C6.76747 0 5.76003 1.02659 5.76003 2.28261C5.76003 2.63211 5.83949 2.96388 5.97878 3.26087H2.82251C2.67339 3.26087 2.54423 3.36567 2.51063 3.51371L0.00811475 14.6007C-0.0136454 14.6975 0.00888475 14.7991 0.0693652 14.8771C0.129846 14.955 0.222391 15 0.319992 15H15.6801C15.7777 15 15.8696 14.9547 15.9301 14.8771C15.9906 14.7995 16.0137 14.6975 15.992 14.6007L13.4895 3.51371C13.4559 3.36567 13.3267 3.26087 13.1776 3.26087H10.0213C10.1606 2.96388 10.2401 2.63211 10.2401 2.28261C10.2401 1.02659 9.23263 0 8.00005 0ZM8.00005 0.652174C8.88588 0.652174 9.60006 1.37993 9.60006 2.28261C9.60006 2.6544 9.47452 2.98838 9.26943 3.26087H6.73066C6.52557 2.98838 6.40004 2.6544 6.40004 2.28261C6.40004 1.37993 7.11422 0.652174 8.00005 0.652174ZM4.98315 6.64593H5.69316V9.1903H5.74191L6.89754 7.88468H7.72192L6.47441 9.25718L7.80755 11.087H6.94942L5.94503 9.71383L5.69316 9.97113V11.087H4.98315V6.64593ZM9.31693 7.82736C9.74318 7.82736 10.1151 8.04278 10.2869 8.38973H10.3357V7.87959H11.0194V11.0806C11.0194 11.8182 10.4415 12.2818 9.52881 12.2818C8.72464 12.2818 8.19827 11.9208 8.14067 11.3723H8.8538C8.89989 11.5911 9.15126 11.7309 9.54006 11.7309C10.0265 11.7309 10.3101 11.4976 10.3101 11.0984V10.4947H10.2613C10.0812 10.8361 9.74057 11.0226 9.30568 11.0226C8.51592 11.0226 8.0238 10.3983 8.0238 9.43933C8.0238 8.46237 8.51853 7.82736 9.31693 7.82736ZM9.52818 8.44196C9.03314 8.44196 8.75318 8.82954 8.75318 9.43933C8.75318 10.0485 9.03314 10.4335 9.52818 10.4335C10.0232 10.4335 10.3213 10.0485 10.3213 9.43933C10.3213 8.82987 10.0203 8.44196 9.52818 8.44196Z" fill="#8C6925"/>
</svg>
