<svg width="37" height="26" viewBox="0 0 37 26" fill="none" xmlns="http://www.w3.org/2000/svg">
<path d="M18.3801 0C13.038 0 8.07468 0.367757 5.24253 0.939453C5.2365 0.940997 5.23047 0.942584 5.22447 0.944214C3.09074 1.40619 1.08157 2.88294 0.658601 5.19556C0.658041 5.19873 0.657493 5.2019 0.656959 5.20508C0.33202 7.06897 0 9.49869 0 13C0 16.4947 0.333159 18.86 0.744006 20.8219C1.17733 23.0663 3.14013 24.5877 5.30659 25.0558C5.31695 25.0586 5.32735 25.0612 5.33779 25.0637C8.29362 25.6265 13.1169 26 18.4589 26C23.8009 26 28.6267 25.6265 31.5833 25.0637C31.5937 25.0612 31.6041 25.0586 31.6145 25.0558C33.7482 24.5938 35.7574 23.1171 36.1804 20.8044C36.1815 20.7986 36.1826 20.7928 36.1837 20.787C36.5036 18.8851 36.9182 16.4577 36.9999 12.9508C37 12.9418 37 12.9328 36.9999 12.9238C36.9999 9.415 36.5843 6.97017 36.1787 5.03369C35.7488 2.7845 33.7838 1.25895 31.6145 0.790283C31.5814 0.783164 31.5479 0.777341 31.5143 0.772827C28.6299 0.381022 23.7229 0 18.3801 0ZM15.2677 6.90784C15.5792 6.90162 15.9012 6.9728 16.2039 7.13794L23.4387 11.0878C24.6588 11.754 24.6588 13.4351 23.4387 14.1013L16.2039 18.0511C14.9938 18.7109 13.4857 17.8753 13.4857 16.5436V8.64392C13.4857 7.64516 14.3333 6.9265 15.2677 6.90784Z" fill="white"/>
</svg>
